<?xml  version="1.0" encoding="UTF-8"?>
<!DOCTYPE svg PUBLIC "-//W3C//DTD SVG 1.0//EN" "http://www.w3.org/TR/2001/REC-SVG-20010904/DTD/svg10.dtd" >
<svg xmlns="http://www.w3.org/2000/svg" >
<metadata>
<version>1.0</version>
<id><![CDATA[Lexia W01 Thin]]></id>
<vendor>Monotype Imaging Inc.</vendor>
<credits>
<name>Fonts.com WebFonts</name>
<URL>http://webfonts.fonts.com</URL>
<role>Home of the Web fonts</role>
</credits>
<license>
<URL>http://webfonts.fonts.com/Legal</URL>
</license>
<copyright><![CDATA[Copyright 1999-2009 Ron Carpenter and Dalton Maag Ltd. All rights reserved.The use of this font without a valid license is illegal and will be prosecuted.]]></copyright>
<trademark><![CDATA[Lexia is a trademark of Ron Carpenter and Dalton Maag Ltd.]]></trademark>
<licensee>
<name></name>
</licensee>
</metadata>
<defs >
<font horiz-adv-x="525" id="85c7d1cf-e2de-4515-9f49-d98d7b63f3e3">
<font-face font-family="" panose-1="2 6 5 3 4 2 2 2 2 3" ascent="950" descent="-250" units-per-em="1000" alphabetic="0">
</font-face>
<missing-glyph horiz-adv-x="0" />

<glyph unicode="&#xA;" horiz-adv-x="0" />
<glyph unicode="&#xD;" horiz-adv-x="0" />
<glyph unicode=" " horiz-adv-x="269" />
<glyph unicode="!" horiz-adv-x="239" d="M90 729H150L140 201H100L90 729ZM120 -14Q102 -14 91 0T79 36Q79 58 90 72T120 87Q138 87 149 73T161 36Q161 15 150 1T120 -14Z"  />
<glyph unicode="&quot;" horiz-adv-x="376" d="M95 729H147L138 468H104L95 729ZM227 729H279L270 468H236L227 729Z"  />
<glyph unicode="#" horiz-adv-x="536" d="M123 227H15L23 263H132L183 465H77L85 501H192L250 729H290L232 501H374L432 729H472L414 501H521L513 465H405L354 263H459L451 227H345L287 0H247L305 227H163L105 0H65L123 227ZM314 263L365 465H223L172 263H314Z"  />
<glyph unicode="$" horiz-adv-x="523" d="M53 193Q61 195 71 195Q81 195 89 193V137Q89 116 100 96T131 61T180 37T245 26V327L199 341Q169 350 144 363T101 397T73 446T63 513Q63 551 77 581T115 632T172 665T245 679V752H281V679Q305 677 325 670T362 654T389 636T405 619V668Q407 669 412 669T421 670Q429 670 439 668V491Q431 489 421 489Q411 489 403 491V532Q403 574 371 605T281 641V363L326 351Q397 332 433 288T470 169Q470 134 459 102T424 45T365 5T281 -12V-112H245V-12Q199 -10 155 6T88 57V0Q80 -2 70 -2Q67 -2 62 -2T53 0V193ZM245 373V641Q185 639 146 606T107 513Q107 455 136 424T225 378L245 373ZM281 26Q316 27 343 38T388 69T416 113T426 167Q426 277 320 308L281 319V26Z"  />
<glyph unicode="%" horiz-adv-x="924" d="M525 163Q525 200 539 232T577 289T634 326T704 340Q740 340 772 326T829 288T867 232T881 163Q881 126 867 94T829 37T773 -2T704 -16Q667 -16 635 -2T578 36T539 92T525 163ZM650 683H694L276 -16H232L650 683ZM43 506Q43 543 57 575T95 632T152 669T222 683Q258 683 290 669T347 631T385 575T399 506Q399 469 385 437T347 380T291 341T222 327Q185 327 153 341T96 379T57 435T43 506ZM703 19Q733 19 759 31T804 62T833 108T844 163Q844 192 833 218T803 263T758 294T704 305Q674 305 649 294T604 263T573 217T562 163Q562 130 573 104T604 59T649 30T703 19ZM221 362Q251 362 277 374T322 405T351 451T362 506Q362 535 351 561T321 606T276 637T222 648Q192 648 167 637T122 606T91 560T80 506Q80 473 91 447T122 402T167 373T221 362Z"  />
<glyph unicode="&amp;" horiz-adv-x="657" d="M451 98Q409 44 360 14T244 -16Q189 -16 153 3T96 49T67 105T58 153Q58 188 65 218T90 277T142 332T227 386Q200 423 185 449T161 495T151 530T148 560Q148 618 188 657T301 696Q342 696 374 685T432 660V618Q401 637 372 648T305 659Q244 659 218 630T191 560Q191 525 213 487T269 405L450 169Q468 207 479 249T494 333H600Q602 327 602 316Q602 307 600 299H528Q523 273 512 231T476 138L555 34H650Q652 28 652 17Q652 8 650 0H526L451 98ZM249 359Q171 319 136 274T101 172Q101 138 112 110T144 63T191 32T250 21Q307 21 349 49T427 127L249 359Z"  />
<glyph unicode="&apos;" horiz-adv-x="228" d="M86 729H138L129 468H95L86 729Z"  />
<glyph unicode="(" horiz-adv-x="278" d="M214 -179Q177 -119 150 -62T106 52T80 170T71 295Q71 360 79 419T105 536T150 650T214 767H249Q220 710 197 659T157 552T131 435T122 295Q122 218 131 156T157 38T197 -70T249 -179H214Z"  />
<glyph unicode=")" horiz-adv-x="278" d="M29 -179Q57 -122 80 -70T121 37T147 155T156 295Q156 372 147 434T121 552T81 658T29 767H64Q101 707 128 651T172 537T198 420T207 295Q207 230 199 170T173 53T128 -62T64 -179H29Z"  />
<glyph unicode="*" horiz-adv-x="364" d="M154 607L42 642L56 679L165 639L161 758H202L198 639L307 679L321 642L209 607L289 502L256 481L182 591L107 481L75 502L154 607Z"  />
<glyph unicode="+" horiz-adv-x="523" d="M31 356H242V567H283V356H492V316H283V105H242V316H31V356Z"  />
<glyph unicode="&#x2c;" horiz-adv-x="238" d="M78 -112Q109 -95 119 -66T130 -8Q122 -11 112 -11Q95 -11 84 2T73 36Q73 57 84 72T118 87Q141 87 154 66T168 5Q168 -31 159 -58T136 -104T106 -134T78 -148V-112Z"  />
<glyph unicode="-" horiz-adv-x="292" d="M242 292Q243 288 243 281T244 269Q244 264 244 258T242 246H50Q49 251 49 257T48 269Q48 274 48 281T50 292H242Z"  />
<glyph unicode="." horiz-adv-x="238" d="M119 -14Q101 -14 90 0T78 36Q78 58 89 72T119 87Q137 87 148 73T160 36Q160 15 149 1T119 -14Z"  />
<glyph unicode="/" horiz-adv-x="287" d="M242 758H282L45 -18H5L242 758Z"  />
<glyph unicode="0" horiz-adv-x="523" d="M261 -16Q193 -16 151 17T84 101T50 215T41 335Q41 392 50 453T83 566T150 650T261 683Q329 683 372 650T439 566T473 454T482 335Q482 277 473 215T440 102T372 17T261 -16ZM261 22Q309 22 342 46T396 112T426 211T436 335Q436 402 427 458T396 556T342 621T261 645Q214 645 181 622T127 557T97 459T87 335Q87 268 96 211T127 112T181 46T261 22Z"  />
<glyph unicode="1" horiz-adv-x="523" d="M251 34V633H113Q111 641 111 650Q111 661 113 667H294V34H425Q427 28 427 17Q427 8 425 0H113Q111 8 111 17Q111 28 113 34H251Z"  />
<glyph unicode="2" horiz-adv-x="523" d="M408 39V159Q414 161 425 161Q430 161 435 161T445 159V0H21Q25 41 38 76T73 142T124 203T190 260L273 324Q292 338 312 356T350 396T378 447T390 512Q390 576 351 610T244 645Q212 645 185 637T134 617T93 589T60 561V608Q75 621 94 634T138 659T190 676T254 683Q291 683 324 672T382 640T421 587T436 513Q436 473 424 442T394 385T354 341T312 306L214 231Q191 213 168 192T126 147T91 95T70 39H408Z"  />
<glyph unicode="3" horiz-adv-x="523" d="M35 89Q80 50 130 36T223 22Q259 22 290 33T345 64T381 114T395 181Q395 235 375 265T325 311T264 329T212 333H191Q189 341 189 351Q189 362 191 370H218Q245 370 272 377T320 402T355 446T369 515Q369 535 362 557T339 599T295 632T226 645Q168 645 126 623T55 576V617Q81 643 127 663T231 683Q274 683 308 670T366 635T402 582T415 518Q415 456 387 417T300 354Q375 335 408 294T441 184Q441 148 429 112T389 48T320 2T217 -16Q160 -16 112 0T35 37V89Z"  />
<glyph unicode="4" horiz-adv-x="523" d="M29 214L324 681H374V213H478Q479 208 479 204T480 194Q480 189 480 185T478 176H374V34H449Q451 28 451 17Q451 8 449 0H244Q242 8 242 17Q242 28 244 34H331V176H29V214ZM331 213V629L69 213H331Z"  />
<glyph unicode="5" horiz-adv-x="523" d="M52 76Q87 50 126 35T227 20Q264 20 295 34T350 73T385 133T398 211Q398 255 387 288T355 343T306 376T245 387Q194 387 161 370T106 320H70L102 667H413Q414 664 414 658T415 647Q415 638 413 628H135L111 373Q135 396 168 410T250 425Q285 425 319 413T382 376T427 310T444 213Q444 177 433 137T396 62T327 5T220 -18Q156 -18 116 -3T52 28V76Z"  />
<glyph unicode="6" horiz-adv-x="523" d="M445 607Q416 624 383 634T308 645Q264 645 232 628T177 582T140 517T117 443T105 369T101 304Q125 362 172 392T275 423Q311 423 346 412T411 376T458 311T476 211Q476 160 463 119T423 47T358 1T270 -16Q230 -16 197 -3T142 30Q115 55 98 87T72 157T60 235T56 314Q56 374 68 439T110 558T186 647T304 683Q353 683 385 674T445 651V607ZM276 21Q312 21 341 35T390 74T420 133T431 207Q431 236 424 267T398 325T349 368T272 385Q231 385 201 370T151 329T122 270T112 201Q112 170 121 138T150 80T201 38T276 21Z"  />
<glyph unicode="7" horiz-adv-x="523" d="M428 628H98V499Q90 497 80 497Q71 497 61 499V667H466V624L186 0H143L428 628Z"  />
<glyph unicode="8" horiz-adv-x="523" d="M177 361Q156 372 137 386T104 420T82 464T74 519Q74 550 83 579T115 632T172 669T261 683Q313 683 349 669T407 632T438 580T448 519Q448 488 440 464T418 421T385 387T345 361Q385 347 409 325T447 279T466 229T471 184Q471 143 459 107T422 44T357 0T261 -16Q205 -16 166 0T101 43T63 107T51 184Q51 204 56 229T74 278T112 325T177 361ZM118 515Q118 486 128 461T157 417T202 388T261 377Q294 377 320 387T365 417T394 461T404 515Q404 539 398 563T375 605T331 636T261 648Q219 648 192 636T148 606T125 563T118 515ZM96 181Q96 131 112 100T153 52T207 28T261 21Q286 21 314 27T368 51T409 100T426 181Q426 223 412 253T375 302T323 330T261 339Q229 339 200 330T147 302T110 253T96 181Z"  />
<glyph unicode="9" horiz-adv-x="523" d="M74 61Q106 44 137 34T211 23Q249 23 286 36T352 85T401 188T422 363Q398 305 350 275T240 244Q207 244 173 255T111 291T65 356T47 456Q47 507 60 548T100 620T166 666T256 683Q318 683 358 657T423 586T457 483T467 363Q467 285 454 217T412 96T335 14T217 -16Q168 -16 136 -7T74 17V61ZM251 282Q292 282 322 297T372 338T401 397T411 466Q411 497 402 529T373 587T322 629T247 646Q211 646 182 632T133 593T103 534T92 460Q92 431 99 400T125 342T174 299T251 282Z"  />
<glyph unicode=":" horiz-adv-x="238" d="M119 -14Q101 -14 90 0T78 36Q78 58 89 72T119 87Q137 87 148 73T160 36Q160 15 149 1T119 -14ZM119 406Q101 406 90 420T78 456Q78 478 89 492T119 507Q137 507 148 493T160 456Q160 435 149 421T119 406Z"  />
<glyph unicode=";" horiz-adv-x="238" d="M78 -112Q109 -95 119 -66T130 -8Q122 -11 112 -11Q95 -11 84 2T73 36Q73 57 84 72T118 87Q141 87 154 66T168 5Q168 -31 159 -58T136 -104T106 -134T78 -148V-112ZM122 406Q104 406 93 420T81 456Q81 478 92 492T122 507Q140 507 151 493T163 456Q163 435 152 421T122 406Z"  />
<glyph unicode="&lt;" horiz-adv-x="523" d="M40 358L483 562V516L81 335L483 153V109L40 312V358Z"  />
<glyph unicode="=" horiz-adv-x="523" d="M31 450H492V410H31V450ZM31 260H492V220H31V260Z"  />
<glyph unicode="&gt;" horiz-adv-x="523" d="M40 153L442 335L40 516V562L483 358V312L40 109V153Z"  />
<glyph unicode="?" horiz-adv-x="508" d="M216 201Q217 234 222 258T238 305T263 347T300 394Q316 413 332 430T363 468Q377 489 387 513T398 570Q398 596 390 621T363 665T317 697T248 709Q219 709 194 702T147 683T107 659T73 632V676Q102 701 149 724T257 747Q299 747 333 734T392 698T430 645T444 578Q444 552 439 530T422 486T392 440T350 390Q328 366 312 346T283 304T264 259T256 201H216ZM238 -14Q220 -14 209 0T197 36Q197 58 208 72T238 87Q256 87 267 73T279 36Q279 15 268 1T238 -14Z"  />
<glyph unicode="@" horiz-adv-x="822" d="M510 96Q492 75 459 58T379 40Q313 40 281 72T248 155Q248 181 255 203T280 242Q298 261 329 273T418 291L522 302L523 328Q525 379 504 402T424 426Q387 426 355 413T294 381L297 426Q316 437 350 450T435 463Q454 463 477 460T519 443T552 405T565 338Q565 329 564 312T562 278L554 96Q596 105 627 126T679 176T710 240T721 315Q721 381 697 433T633 522T539 579T428 599Q358 599 299 573T198 499T131 389T107 250Q107 172 132 109T201 2T305 -67T435 -92Q477 -92 515 -85T587 -66T647 -41T694 -15L712 -49Q659 -81 590 -105T433 -129Q352 -129 284 -101T166 -23T88 99T60 256Q60 338 89 407T168 528T286 607T428 636Q496 636 556 613T663 548T735 449T762 323Q762 259 743 210T689 126T609 73T510 51V96ZM519 264L417 253Q355 246 323 227T291 157Q291 123 314 101T379 79Q403 79 427 86T470 106T502 140T516 188L519 264Z"  />
<glyph unicode="A" horiz-adv-x="699" d="M81 34L332 738H385L616 34H684Q685 30 685 26T686 17Q686 12 686 8T684 0H472Q471 4 471 8T470 17Q470 22 470 26T472 34H568L501 246H195L122 34H214Q215 30 215 26T216 17Q216 12 216 8T214 0H15Q14 4 14 8T13 17Q13 22 13 26T15 34H81ZM488 283L355 701L209 283H488Z"  />
<glyph unicode="B" horiz-adv-x="658" d="M117 34V695H37Q36 699 36 703T35 712Q35 717 35 721T37 729H366Q416 729 452 715T510 675T543 618T554 551Q554 517 545 491T522 444T488 410T450 387Q480 381 506 366T552 328T583 273T595 199Q595 160 582 125T542 61T475 17T379 0H37Q36 4 36 8T35 17Q35 22 35 26T37 34H117ZM340 399Q377 399 408 407T461 434T495 481T507 551Q507 615 468 654T341 693H162V399H340ZM362 36Q410 36 445 48T503 83T537 135T548 202Q548 250 531 281T488 331T429 356T365 363H162V36H362Z"  />
<glyph unicode="C" horiz-adv-x="693" d="M619 65Q605 53 583 39T532 12T467 -9T388 -18Q305 -18 244 11T141 92T80 211T60 359Q60 435 80 505T139 629T236 715T372 747Q431 747 487 724T578 647V729Q588 731 597 731Q606 731 616 729V473Q606 471 597 471Q588 471 578 473V506Q578 548 565 585T527 650T462 694T371 710Q299 710 249 677T168 591T122 478T107 359Q107 271 130 208T193 103T283 42T388 22Q430 22 465 31T529 54T580 85T619 118V65Z"  />
<glyph unicode="D" horiz-adv-x="709" d="M117 34V695H37Q36 699 36 703T35 712Q35 717 35 721T37 729H344Q395 729 429 721T491 699Q567 659 608 574T649 375Q649 331 642 284T620 192T579 110T518 45Q490 25 452 13T354 0H37Q36 4 36 8T35 17Q35 22 35 26T37 34H117ZM344 36Q397 36 430 46T489 77Q543 119 572 195T602 368Q602 475 566 552T460 666Q436 679 406 686T333 693H162V36H344Z"  />
<glyph unicode="E" horiz-adv-x="612" d="M117 34V695H37Q36 699 36 703T35 712Q35 717 35 721T37 729H546V544Q536 542 527 542Q516 542 506 544V693H162V394H471Q472 389 472 385T473 376Q473 371 473 367T471 358H162V36H512V185Q522 187 533 187Q542 187 552 185V0H37Q36 4 36 8T35 17Q35 22 35 26T37 34H117Z"  />
<glyph unicode="F" horiz-adv-x="577" d="M117 34V695H37Q36 699 36 703T35 712Q35 717 35 721T37 729H536V538Q526 536 517 536Q506 536 496 538V693H162V394H449Q450 389 450 385T451 376Q451 371 451 367T449 358H162V34H260Q261 30 261 26T262 17Q262 12 262 8T260 0H37Q36 4 36 8T35 17Q35 22 35 26T37 34H117Z"  />
<glyph unicode="G" horiz-adv-x="739" d="M588 296H477Q476 300 476 304T475 313Q475 320 477 330H703Q705 320 705 313Q705 308 705 304T703 296H633V44Q621 36 598 25T544 5T475 -11T396 -18Q306 -18 243 13T139 97T79 219T60 364Q60 440 80 509T140 631T236 715T367 747Q445 747 497 719T582 648V729Q592 731 601 731Q610 731 620 729V496Q610 494 601 494Q592 494 582 496V518Q582 557 568 592T527 653T461 694T371 710Q300 710 250 678T168 595T122 482T107 361Q107 282 128 220T187 113T278 46T396 22Q462 22 506 35T588 69V296Z"  />
<glyph unicode="H" horiz-adv-x="743" d="M117 34V695H37Q36 699 36 703T35 712Q35 717 35 721T37 729H242Q243 725 243 721T244 712Q244 707 244 703T242 695H162V403H581V695H501Q500 699 500 703T499 712Q499 717 499 721T501 729H706Q707 725 707 721T708 712Q708 707 708 703T706 695H626V34H706Q707 30 707 26T708 17Q708 12 708 8T706 0H501Q500 4 500 8T499 17Q499 22 499 26T501 34H581V367H162V34H242Q243 30 243 26T244 17Q244 12 244 8T242 0H37Q36 4 36 8T35 17Q35 22 35 26T37 34H117Z"  />
<glyph unicode="I" horiz-adv-x="295" d="M125 34V695H45Q44 699 44 703T43 712Q43 717 43 721T45 729H250Q251 725 251 721T252 712Q252 707 252 703T250 695H170V34H250Q251 30 251 26T252 17Q252 12 252 8T250 0H45Q44 4 44 8T43 17Q43 22 43 26T45 34H125Z"  />
<glyph unicode="J" horiz-adv-x="484" d="M26 74Q52 58 89 43T174 28Q257 28 290 77T324 233V695H227Q226 699 226 703T225 712Q225 717 225 721T227 729H449Q450 725 450 721T451 712Q451 707 451 703T449 695H369V224Q369 156 355 111T314 38T252 0T172 -12Q127 -12 88 1T26 28V74Z"  />
<glyph unicode="K" horiz-adv-x="666" d="M117 34V695H37Q36 699 36 703T35 712Q35 717 35 721T37 729H242Q243 725 243 721T244 712Q244 707 244 703T242 695H162V327L508 695H394Q393 699 393 703T392 712Q392 717 392 721T394 729H621Q622 725 622 721T623 712Q623 707 623 703T621 695H561L329 449L587 34H656Q657 30 657 26T658 17Q658 12 658 8T656 0H429Q428 4 428 8T427 17Q427 22 427 26T429 34H534L296 415L162 273V34H242Q243 30 243 26T244 17Q244 12 244 8T242 0H37Q36 4 36 8T35 17Q35 22 35 26T37 34H117Z"  />
<glyph unicode="L" horiz-adv-x="559" d="M117 34V695H37Q36 699 36 703T35 712Q35 717 35 721T37 729H254Q255 725 255 721T256 712Q256 707 256 703T254 695H162V36H478V218Q488 220 499 220Q508 220 518 218V0H37Q36 4 36 8T35 17Q35 22 35 26T37 34H117Z"  />
<glyph unicode="M" horiz-adv-x="874" d="M117 34V695H37Q36 699 36 703T35 712Q35 717 35 721T37 729H198L432 60L676 729H837Q838 725 838 721T839 712Q839 707 839 703T837 695H757V34H837Q838 30 838 26T839 17Q839 12 839 8T837 0H631Q630 4 630 8T629 17Q629 22 629 26T631 34H711V705L459 20H402L161 705V34H241Q242 30 242 26T243 17Q243 12 243 8T241 0H37Q36 4 36 8T35 17Q35 22 35 26T37 34H117Z"  />
<glyph unicode="N" horiz-adv-x="721" d="M117 34V695H37Q36 699 36 703T35 712Q35 717 35 721T37 729H193L566 49V695H486Q485 699 485 703T484 712Q484 717 484 721T486 729H690Q691 725 691 721T692 712Q692 707 692 703T690 695H610V-9H549L161 698V34H241Q242 30 242 26T243 17Q243 10 241 0H37Q35 10 35 17Q35 22 35 26T37 34H117Z"  />
<glyph unicode="O" horiz-adv-x="771" d="M386 -18Q293 -18 231 17T130 108T76 232T60 364Q60 407 67 452T89 539T130 620T191 686T275 730T386 747Q448 747 496 731T580 686T641 620T681 540T704 452T711 364Q711 300 695 232T641 109T541 18T386 -18ZM386 19Q448 19 499 43T587 112T644 221T664 364Q664 443 644 507T587 616T499 685T386 710Q324 710 273 686T184 616T127 507T107 364Q107 285 127 221T184 112T272 43T386 19Z"  />
<glyph unicode="P" horiz-adv-x="605" d="M117 34V695H37Q36 699 36 703T35 712Q35 717 35 721T37 729H383Q428 729 462 714T521 672T557 610T569 534Q569 498 559 462T526 398T465 351T372 333H162V34H252Q253 30 253 26T254 17Q254 12 254 8T252 0H37Q36 4 36 8T35 17Q35 22 35 26T37 34H117ZM357 369Q393 369 423 378T475 408T509 458T522 532Q522 573 510 603T477 654T426 683T361 693H162V369H357Z"  />
<glyph unicode="Q" horiz-adv-x="771" d="M711 -99Q685 -110 647 -119T561 -128Q495 -128 442 -98T350 -16Q268 -9 213 28T123 120T75 238T60 364Q60 407 67 452T89 539T130 620T191 686T275 730T386 747Q448 747 496 731T580 686T641 620T681 540T704 452T711 364Q711 302 696 237T646 118T554 26T410 -17Q452 -64 490 -77T565 -91Q594 -91 628 -87T711 -61V-99ZM386 19Q448 19 499 43T587 112T644 221T664 364Q664 443 644 507T587 616T499 685T386 710Q324 710 273 686T184 616T127 507T107 364Q107 285 127 221T184 112T272 43T386 19Z"  />
<glyph unicode="R" horiz-adv-x="668" d="M117 34V695H37Q36 699 36 703T35 712Q35 717 35 721T37 729H382Q414 729 437 725T478 712Q528 689 553 643T579 537Q579 509 572 479T546 421T497 373T419 340L574 34H646Q647 30 647 26T648 17Q648 12 648 8T646 0H538L369 339H162V34H257Q258 30 258 26T259 17Q259 12 259 8T257 0H37Q36 4 36 8T35 17Q35 22 35 26T37 34H117ZM367 375Q402 375 432 384T485 412T519 461T532 536Q532 590 513 624T458 675Q439 684 417 688T365 693H162V375H367Z"  />
<glyph unicode="S" horiz-adv-x="617" d="M53 238Q63 240 72 240Q81 240 91 238V212Q91 172 108 137T157 76T233 35T331 20Q373 20 409 29T472 58T513 106T528 172Q528 209 516 236T484 282T437 315T381 336L207 386Q179 394 154 407T111 441T81 491T70 559Q70 603 87 638T133 697T202 734T286 747Q360 747 409 726T502 651V729Q512 731 521 731Q530 731 540 729V509Q530 507 521 507Q512 507 502 509V526Q502 563 488 596T448 655T382 695T291 710Q256 710 224 701T168 674T130 627T115 560Q115 504 147 472T237 423L395 379Q489 353 532 305T575 176Q575 131 558 95T509 34T433 -4T334 -17Q257 -17 198 9T91 93V0Q81 -2 72 -2Q63 -2 53 0V238Z"  />
<glyph unicode="T" horiz-adv-x="667" d="M311 34V693H80V531Q70 529 59 529Q50 529 40 531V729H627V531Q617 529 608 529Q597 529 587 531V693H356V34H440Q442 24 442 16Q442 11 442 8T440 0H227Q226 4 226 7T225 16Q225 24 227 34H311Z"  />
<glyph unicode="U" horiz-adv-x="725" d="M111 695H31Q30 699 30 703T29 712Q29 717 29 721T31 729H236Q237 725 237 721T238 712Q238 707 238 703T236 695H156V250Q156 184 175 140T223 70T290 33T363 22Q399 22 435 33T502 70T550 140T569 250V695H489Q488 699 488 703T487 712Q487 717 487 721T489 729H694Q695 725 695 721T696 712Q696 707 696 703T694 695H614V238Q614 185 600 139T555 58T477 3T363 -18Q297 -18 250 2T171 57T126 138T111 238V695Z"  />
<glyph unicode="V" horiz-adv-x="699" d="M83 695H15Q14 699 14 703T13 712Q13 717 13 721T15 729H227Q228 725 228 721T229 712Q229 707 229 703T227 695H131L343 31L575 695H485Q484 699 484 703T483 712Q483 717 483 721T485 729H684Q685 725 685 721T686 712Q686 707 686 703T684 695H618L367 -9H314L83 695Z"  />
<glyph unicode="W" horiz-adv-x="997" d="M83 695H15Q14 699 14 703T13 712Q13 717 13 721T15 729H227Q228 725 228 721T229 712Q229 707 229 703T227 695H130L288 46L473 729H526L699 42L873 695H783Q782 699 782 703T781 712Q781 717 781 721T783 729H982Q983 725 983 721T984 712Q984 707 984 703T982 695H916L720 -9H667L496 667L312 -9H259L83 695Z"  />
<glyph unicode="X" horiz-adv-x="705" d="M87 34L328 370L98 695H37Q36 699 36 703T35 712Q35 717 35 721T37 729H265Q266 725 266 721T267 712Q267 707 267 703T265 695H150L355 406L562 695H454Q453 699 453 703T452 712Q452 717 452 721T454 729H669Q670 725 670 721T671 712Q671 707 671 703T669 695H609L379 374L619 34H681Q682 30 682 26T683 17Q683 12 683 8T681 0H452Q451 4 451 8T450 17Q450 22 450 26T452 34H567L352 337L134 34H242Q243 30 243 26T244 17Q244 12 244 8T242 0H25Q24 4 24 8T23 17Q23 22 23 26T25 34H87Z"  />
<glyph unicode="Y" horiz-adv-x="701" d="M323 34V295L70 695H15Q14 699 14 703T13 712Q13 717 13 721T15 729H227Q228 725 228 721T229 712Q229 707 229 703T227 695H119L350 331L583 695H482Q481 699 481 703T480 712Q480 717 480 721T482 729H686Q687 725 687 721T688 712Q688 707 688 703T686 695H630L368 294V34H453Q454 30 454 26T455 17Q455 12 455 8T453 0H238Q237 4 237 8T236 17Q236 22 236 26T238 34H323Z"  />
<glyph unicode="Z" horiz-adv-x="600" d="M35 37L496 693H94V540Q84 538 73 538Q64 538 54 540V729H545V692L84 36H525V192Q535 194 546 194Q555 194 565 192V0H35V37Z"  />
<glyph unicode="[" horiz-adv-x="233" d="M64 758H201V719H107V-129H201V-168H64V758Z"  />
<glyph unicode="\" horiz-adv-x="287" d="M5 758H45L282 -18H242L5 758Z"  />
<glyph unicode="]" horiz-adv-x="233" d="M32 -129H126V719H32V758H169V-168H32V-129Z"  />
<glyph unicode="^" horiz-adv-x="496" d="M224 667H271L456 256H409L247 627L85 256H40L224 667Z"  />
<glyph unicode="_" horiz-adv-x="500" d="M0 -103H500V-137H0V-103Z"  />
<glyph unicode="`" horiz-adv-x="326" d="M77 711H145L248 575H203L77 711Z"  />
<glyph unicode="a" horiz-adv-x="517" d="M381 72Q365 52 348 36T308 9T257 -8T192 -14Q120 -14 80 24T39 128Q39 159 47 187T76 237T130 273T216 294L379 312V344Q379 378 373 404T350 449T308 476T241 485Q192 485 153 468T85 432V475Q95 482 110 490T147 505T194 516T253 521Q278 521 307 516T362 494T405 445T422 358V34H491Q493 28 493 17Q493 8 491 0H381V72ZM379 275L237 260Q199 256 171 248T122 224T92 185T82 127Q82 76 115 48T206 20Q236 20 267 29T322 57T363 104T379 171V275Z"  />
<glyph unicode="b" horiz-adv-x="560" d="M99 34V724H26Q24 732 24 741Q24 752 26 758H142V420Q171 475 213 498T318 521Q365 521 402 502T464 449T503 370T516 270Q516 217 506 166T472 75T407 10T306 -15Q280 -15 256 -9T209 10T169 45T139 95V0H26Q24 8 24 17Q24 28 26 34H99ZM304 22Q348 22 379 41T431 92T461 168T471 262Q471 291 465 329T441 401T390 460T303 484Q250 484 218 460T169 401T145 326T139 255Q139 185 155 140T195 69T249 32T304 22Z"  />
<glyph unicode="c" horiz-adv-x="481" d="M428 33Q405 19 367 3T268 -14Q213 -14 172 6T102 62T59 145T44 246Q44 304 57 353T96 439T162 496T256 517Q298 517 335 500T394 450V507Q402 509 412 509Q421 509 431 507V319Q421 317 412 317Q402 317 394 319V331Q394 401 362 441T261 481Q208 481 175 458T122 401T96 325T89 246Q89 192 103 151T141 82T199 40T272 26Q320 26 358 41T428 83V33Z"  />
<glyph unicode="d" horiz-adv-x="560" d="M421 95Q409 66 391 45T351 11T304 -9T254 -15Q194 -15 154 9T89 74T54 164T44 268Q44 322 57 368T96 448T159 501T243 521Q305 521 347 498T418 420V724H346Q344 732 344 741Q344 752 346 758H461V34H534Q536 28 536 17Q536 8 534 0H421V95ZM256 22Q282 22 311 32T364 68T405 140T421 255Q421 286 415 326T392 401T342 460T257 484Q203 484 170 461T119 403T95 331T89 264Q89 214 98 170T128 93T180 41T256 22Z"  />
<glyph unicode="e" horiz-adv-x="489" d="M424 22Q398 8 361 -3T282 -14Q218 -14 173 8T100 67T58 152T44 254Q44 308 56 356T93 441T157 499T249 521Q306 521 344 499T406 439T439 351T449 245H89Q92 198 105 158T141 88T200 43T281 26Q331 26 364 39T424 69V22ZM399 281Q399 314 393 350T371 416T325 465T247 485Q203 485 173 465T125 414T99 347T90 281H399Z"  />
<glyph unicode="f" horiz-adv-x="291" d="M115 34V470H31Q29 478 29 488Q29 499 31 507H115V622Q115 662 126 690T155 735T196 760T243 768Q266 768 280 766T306 759V722Q298 725 284 728T248 731Q207 731 183 705T158 615V507H273Q275 499 275 488Q275 478 273 470H158V34H262Q264 28 264 17Q264 8 262 0H38Q36 8 36 17Q36 28 38 34H115Z"  />
<glyph unicode="g" horiz-adv-x="560" d="M76 -100Q103 -114 141 -128T240 -143Q325 -143 371 -98T418 54V89Q391 29 347 7T251 -15Q192 -15 152 10T88 75T54 166T44 270Q44 324 57 369T96 449T159 502T244 521Q306 521 348 497T421 415V507H534Q536 501 536 490Q536 481 534 473H461V64Q461 -6 445 -53T400 -128T331 -168T242 -180Q188 -180 144 -168T76 -144V-100ZM256 22Q282 22 311 32T364 68T405 140T421 255Q421 286 415 326T392 401T342 460T257 484Q203 484 170 460T119 402T95 329T89 262Q89 212 98 169T128 93T180 41T256 22Z"  />
<glyph unicode="h" horiz-adv-x="569" d="M99 34V724H26Q24 732 24 741Q24 752 26 758H142V426Q169 474 210 497T313 521Q388 521 429 479T470 348V34H543Q545 28 545 17Q545 8 543 0H354Q352 8 352 17Q352 28 354 34H427V323Q427 357 423 386T405 438T367 472T304 484Q271 484 242 473T191 438T155 374T142 277V34H215Q217 28 217 17Q217 8 215 0H26Q24 8 24 17Q24 28 26 34H99Z"  />
<glyph unicode="i" horiz-adv-x="262" d="M120 636Q106 636 94 647T82 679Q82 699 94 710T120 722Q134 722 146 711T158 679Q158 659 146 648T120 636ZM112 34V473H39Q37 481 37 490Q37 501 39 507H155V34H228Q230 28 230 17Q230 8 228 0H39Q37 8 37 17Q37 28 39 34H112Z"  />
<glyph unicode="j" horiz-adv-x="248" d="M115 636Q101 636 89 647T77 679Q77 699 89 710T115 722Q129 722 141 711T153 679Q153 659 141 648T115 636ZM-23 -135Q-12 -139 2 -142T33 -146Q70 -146 88 -127T107 -64V473H34Q32 481 32 490Q32 501 34 507H150V-57Q150 -96 141 -120T115 -157T79 -175T36 -180Q19 -180 4 -177T-23 -169V-135Z"  />
<glyph unicode="k" horiz-adv-x="526" d="M99 34V724H26Q24 732 24 741Q24 752 26 758H142V247L385 473H301Q299 479 299 490Q299 499 301 507H496Q498 499 498 490Q498 479 496 473H438L284 330L460 34H515Q517 28 517 17Q517 8 515 0H334Q332 8 332 17Q332 28 334 34H407L251 300L142 198V34H215Q217 28 217 17Q217 8 215 0H26Q24 8 24 17Q24 28 26 34H99Z"  />
<glyph unicode="l" horiz-adv-x="253" d="M105 34V724H32Q30 732 30 741Q30 752 32 758H148V34H221Q223 28 223 17Q223 8 221 0H32Q30 8 30 17Q30 28 32 34H105Z"  />
<glyph unicode="m" horiz-adv-x="856" d="M104 34V473H31Q29 481 29 490Q29 501 31 507H145V417Q172 472 215 496T305 521Q422 521 445 414Q473 470 519 495T610 521Q685 521 721 479T757 353V34H830Q832 28 832 17Q832 8 830 0H641Q639 8 639 17Q639 28 641 34H714V323Q714 357 711 386T697 438T664 472T603 484Q579 484 553 473T504 438T467 374T452 277V34H525Q527 28 527 17Q527 8 525 0H336Q334 8 334 17Q334 28 336 34H409V323Q409 357 406 386T392 438T359 472T298 484Q274 484 248 473T199 438T162 374T147 277V34H220Q222 28 222 17Q222 8 220 0H31Q29 8 29 17Q29 28 31 34H104Z"  />
<glyph unicode="n" horiz-adv-x="574" d="M104 34V473H31Q29 481 29 490Q29 501 31 507H145V422Q172 472 213 496T318 521Q393 521 434 479T475 348V34H548Q550 28 550 17Q550 8 548 0H359Q357 8 357 17Q357 28 359 34H432V323Q432 357 428 386T410 438T372 472T309 484Q276 484 247 473T196 438T160 374T147 277V34H220Q222 28 222 17Q222 8 220 0H31Q29 8 29 17Q29 28 31 34H104Z"  />
<glyph unicode="o" horiz-adv-x="531" d="M265 -14Q208 -14 167 8T98 68T57 154T44 254Q44 305 57 353T97 438T166 498T265 521Q322 521 364 499T433 439T473 353T487 254Q487 203 474 155T433 70T364 9T265 -14ZM265 23Q321 23 355 49T409 111T435 187T442 254Q442 281 436 320T410 396T356 458T265 484Q209 484 175 458T121 396T96 321T89 254Q89 227 95 188T121 112T174 49T265 23Z"  />
<glyph unicode="p" horiz-adv-x="560" d="M99 -134V473H26Q24 479 24 490Q24 499 26 507H139V412Q162 470 208 495T306 521Q366 521 406 497T471 433T506 342T516 239Q516 185 503 139T464 59T401 6T317 -14Q255 -14 213 9T142 87V-134H220Q222 -140 222 -151Q222 -160 220 -168H27Q25 -160 25 -151Q25 -140 27 -134H99ZM303 23Q357 23 390 46T441 104T465 176T471 243Q471 293 462 337T432 413T380 465T304 484Q278 484 249 474T196 438T155 367T139 252Q139 220 145 181T168 106T218 47T303 23Z"  />
<glyph unicode="q" horiz-adv-x="560" d="M418 -134V87Q389 32 347 9T243 -14Q196 -14 159 5T97 59T58 139T44 239Q44 291 54 342T88 432T153 496T254 521Q305 521 351 496T421 412V507H534Q536 499 536 490Q536 479 534 473H461V-134H533Q535 -140 535 -151Q535 -160 533 -168H340Q338 -160 338 -151Q338 -140 340 -134H418ZM257 23Q310 23 342 47T391 106T415 180T421 252Q421 322 405 367T365 438T311 474T256 484Q212 484 181 465T129 414T99 337T89 243Q89 214 95 176T119 104T170 47T257 23Z"  />
<glyph unicode="r" horiz-adv-x="356" d="M104 34V473H31Q29 481 29 490Q29 501 31 507H145V397Q154 418 168 438T200 474T240 499T288 509Q310 509 321 507T340 502L336 462Q328 464 319 466T286 468Q264 468 240 456T195 416T161 346T147 240V34H225Q227 28 227 17Q227 8 225 0H31Q29 8 29 17Q29 28 31 34H104Z"  />
<glyph unicode="s" horiz-adv-x="478" d="M52 169Q62 171 71 171Q81 171 89 169V157Q89 122 102 97T137 56T188 32T252 24Q278 24 302 29T345 45T375 76T387 125Q387 150 378 167T353 197T316 217T270 232L182 255Q116 272 88 302T59 379Q59 416 72 442T107 486T158 511T218 519Q268 519 305 504T367 457V507Q375 509 385 509Q394 509 404 507V356Q394 354 385 354Q375 354 367 356V382Q367 395 359 412T333 446T288 473T221 484Q198 484 176 479T138 463T111 433T101 389Q101 365 108 349T129 323T162 305T206 292L287 271Q329 260 356 247T401 217T425 178T432 126Q432 66 385 28T255 -11Q208 -11 162 5T89 57V0Q81 -2 71 -2Q62 -2 52 0V169Z"  />
<glyph unicode="t" horiz-adv-x="299" d="M94 470H12Q10 478 10 488Q10 499 12 507H94V649L137 674V507H263Q265 499 265 488Q265 478 263 470H137V138Q137 101 143 82T161 51Q172 40 185 36T214 31Q239 31 254 34T280 42V4Q252 -7 215 -7Q157 -7 126 26T94 129V470Z"  />
<glyph unicode="u" horiz-adv-x="569" d="M99 473H26Q24 481 24 491Q24 501 26 507H142V184Q142 149 146 120T164 69T202 35T265 23Q298 23 327 34T378 69T414 133T427 230V473H354Q352 481 352 491Q352 501 354 507H470V34H543Q545 28 545 18Q545 8 543 0H429V85Q402 35 361 11T256 -14Q181 -14 140 28T99 159V473Z"  />
<glyph unicode="v" horiz-adv-x="519" d="M65 473H12Q10 481 10 491Q10 501 12 507H187Q189 501 189 491Q189 481 187 473H113L262 32L411 473H343Q341 481 341 491Q341 501 343 507H507Q509 501 509 491Q509 481 507 473H453L289 -3H230L65 473Z"  />
<glyph unicode="w" horiz-adv-x="769" d="M65 473H12Q10 481 10 491Q10 501 12 507H187Q189 501 189 491Q189 481 187 473H113L232 32L357 507H416L542 32L661 473H593Q591 481 591 491Q591 501 593 507H757Q759 501 759 491Q759 481 757 473H703L569 -3H510L384 457L259 -3H200L65 473Z"  />
<glyph unicode="x" horiz-adv-x="505" d="M66 34L228 256L75 473H25Q23 481 23 491Q23 501 25 507H193Q195 501 195 491Q195 481 193 473H127L254 290L385 473H328Q326 481 326 491Q326 501 328 507H480Q482 501 482 491Q482 481 480 473H431L278 260L438 34H488Q490 28 490 18Q490 8 488 0H318Q316 8 316 18Q316 28 318 34H384L251 226L114 34H171Q173 28 173 18Q173 8 171 0H17Q15 8 15 18Q15 28 17 34H66Z"  />
<glyph unicode="y" horiz-adv-x="519" d="M51 -129Q65 -135 80 -138T113 -142Q132 -142 147 -138T176 -122T203 -85T230 -22L237 -2L65 473H12Q10 481 10 491Q10 501 12 507H187Q189 501 189 491Q189 481 187 473H113L262 55L411 473H345Q343 481 343 491Q343 501 345 507H507Q509 501 509 491Q509 481 507 473H453L263 -59Q252 -91 240 -111T213 -146Q189 -169 164 -174T114 -180Q93 -180 79 -176T51 -166V-129Z"  />
<glyph unicode="z" horiz-adv-x="416" d="M24 43L340 470H74V366Q66 364 56 364Q47 364 37 366V507H383V464L67 37H355V141Q363 143 373 143Q382 143 392 141V0H24V43Z"  />
<glyph unicode="{" horiz-adv-x="305" d="M121 143Q121 199 103 235T43 277V313Q85 319 103 355T121 447V648Q121 666 126 685T142 721T172 747T217 758H262V719H229Q209 719 196 713T176 695T167 670T164 640V429Q164 371 141 337T79 295Q117 287 140 253T164 161V-50Q164 -66 166 -80T176 -105T196 -122T229 -129H262V-168H217Q190 -168 172 -158T143 -131T126 -96T121 -58V143Z"  />
<glyph unicode="|" horiz-adv-x="229" d="M96 758H134V-18H96V758Z"  />
<glyph unicode="}" horiz-adv-x="305" d="M43 -129H76Q116 -129 128 -106T141 -50V161Q141 219 164 253T226 295Q188 303 165 337T141 429V640Q141 656 139 670T129 695T109 712T76 719H43V758H88Q115 758 133 748T162 721T179 686T184 648V447Q184 391 202 355T262 313V277Q220 271 202 235T184 143V-58Q184 -76 179 -95T163 -131T133 -157T88 -168H43V-129Z"  />
<glyph unicode="~" horiz-adv-x="604" d="M40 156Q50 215 78 250T160 286Q194 286 217 280T268 263L373 222Q389 216 406 212T445 207Q478 207 500 230T532 302H564Q556 242 527 207T440 172Q412 172 391 178T348 192L232 236Q216 242 199 246T160 251Q122 251 103 229T73 156H40Z"  />
<glyph unicode="&#xA0;" horiz-adv-x="269" />
<glyph unicode="&#xA1;" horiz-adv-x="239" d="M120 420Q102 420 91 434T79 471Q79 492 90 506T120 521Q138 521 149 507T161 471Q161 449 150 435T120 420ZM100 348H140L150 -180H90L100 348Z"  />
<glyph unicode="&#xA2;" horiz-adv-x="523" d="M258 70Q210 75 174 97T113 153T76 233T63 328Q63 383 75 431T111 515T171 573T258 598V683H293V598Q330 595 362 578T413 532V589Q421 591 431 591Q440 591 450 589V401Q440 399 431 399Q421 399 413 401V413Q413 479 384 518T293 563V108H295Q340 108 377 123T447 165V115Q425 101 388 85T293 68V-16H258V70ZM258 562Q212 557 183 533T137 476T114 403T108 328Q108 232 149 178T258 111V562Z"  />
<glyph unicode="&#xA3;" horiz-adv-x="523" d="M53 42Q80 65 100 87T133 134T154 188T161 253Q161 279 157 299T150 334H52Q51 338 51 344T50 353Q50 362 52 372H141Q133 396 125 429T116 511Q116 550 129 581T166 635T225 670T303 683Q360 683 395 670T445 646V599Q419 617 383 630T302 644Q272 644 247 635T202 608T173 566T162 510Q162 464 170 432T188 372H374Q376 362 376 353Q376 350 376 344T374 334H198Q201 323 204 302T208 257Q208 189 184 138T103 38H448V159Q450 160 455 161T466 162Q471 162 475 161T485 159V0H53V42Z"  />
<glyph unicode="&#xA4;" horiz-adv-x="580" d="M99 174Q71 206 56 246T40 334Q40 379 55 420T99 495L40 553L69 582L128 523Q160 551 200 566T288 582Q372 582 449 524L507 582L536 553L477 494Q505 462 520 422T536 334Q536 289 521 248T478 174L536 115L507 86L448 145Q416 117 376 102T288 86Q243 86 202 101T128 145L69 86L40 115L99 174ZM288 125Q330 125 367 141T433 186T477 253T493 334Q493 377 477 415T433 481T368 526T288 543Q246 543 209 527T143 482T99 415T83 334Q83 291 99 253T143 187T208 142T288 125Z"  />
<glyph unicode="&#xA5;" horiz-adv-x="523" d="M236 34V182H58V218H236V295L227 312H58V348H208L55 633H9Q9 637 8 641T7 650Q7 655 8 659T9 667H189Q189 663 190 659T191 650Q191 645 190 641T189 633H103L261 331L429 633H342Q342 637 341 641T340 650Q340 655 341 659T342 667H514Q514 663 515 659T516 650Q516 645 515 641T514 633H473L309 348H457V312H289L278 294V218H457V182H278V34H364Q364 30 365 26T366 17Q366 12 365 8T364 0H150Q150 4 149 8T148 17Q148 22 149 26T150 34H236Z"  />
<glyph unicode="&#xA6;" horiz-adv-x="229" d="M96 758H134V499H96V758ZM96 240H134V-18H96V240Z"  />
<glyph unicode="&#xA7;" horiz-adv-x="526" d="M80 -76Q90 -84 107 -95T146 -116T196 -134T252 -142Q276 -142 299 -137T340 -120T368 -88T379 -37Q379 -18 373 -3T356 25T330 50T294 76L148 176Q126 191 108 205T77 237T56 275T48 323Q48 380 75 417T159 489Q125 518 113 546T101 605Q101 639 114 665T149 710T203 737T273 747Q299 747 323 742T367 730T404 715T432 699V651Q422 658 406 668T368 688T323 703T273 710Q249 710 226 705T186 688T158 656T147 605Q147 567 169 543T231 494L377 399Q399 384 417 370T449 338T470 300T477 252Q477 195 448 157T363 84Q398 53 412 24T426 -37Q426 -105 381 -142T260 -179Q227 -179 200 -174T149 -160T109 -142T80 -124V-76ZM336 104Q350 114 366 127T397 156T421 192T431 236Q431 279 410 308T353 360L186 469Q171 459 155 446T126 417T103 382T94 339Q94 296 115 268T172 215L336 104Z"  />
<glyph unicode="&#xA8;" horiz-adv-x="320" d="M245 595Q231 595 219 606T207 638Q207 658 219 669T245 681Q259 681 271 670T283 638Q283 618 271 607T245 595ZM75 595Q61 595 49 606T37 638Q37 658 49 669T75 681Q89 681 101 670T113 638Q113 618 101 607T75 595Z"  />
<glyph unicode="&#xA9;" horiz-adv-x="884" d="M442 -18Q363 -18 294 12T172 94T90 216T60 365Q60 444 90 513T172 635T293 717T442 747Q521 747 590 717T712 635T794 514T824 365Q824 286 794 216T712 94T591 12T442 -18ZM442 19Q512 19 573 46T680 121T752 231T779 365Q779 436 753 499T680 609T573 683T442 710Q372 710 311 683T204 609T132 499T105 365Q105 294 131 231T203 121T310 47T442 19ZM581 189Q561 173 527 156T441 138Q391 138 354 155T293 203T257 274T245 362Q245 406 256 447T291 521T349 572T431 592Q461 592 490 582T541 544V582Q549 582 553 582T560 583Q563 583 567 583T579 582V421Q572 419 568 419T560 418Q556 418 552 418T541 421V446Q541 492 514 523T431 555Q393 555 366 538T321 492T295 430T287 362Q287 313 300 278T334 220T384 187T442 176Q487 176 519 193T581 237V189Z"  />
<glyph unicode="&#xAA;" horiz-adv-x="374" d="M257 458Q236 435 210 424T143 412Q95 412 68 436T40 504Q40 546 65 575T157 611L256 621V637Q256 676 238 695T173 715Q144 715 119 705T69 677V716Q85 727 111 737T181 747Q197 747 216 744T253 730T282 698T294 642V454H337Q337 448 337 444T338 438Q338 435 338 431T337 421H257V458ZM50 339H319V307H50V339ZM256 588L170 580Q123 575 101 558T79 503Q79 477 97 461T149 444Q167 444 186 449T220 464T246 490T256 527V588Z"  />
<glyph unicode="&#xAB;" horiz-adv-x="448" d="M31 253L165 478H214L79 253L214 28H165L31 253ZM234 253L368 478H417L282 253L417 28H368L234 253Z"  />
<glyph unicode="&#xAC;" horiz-adv-x="523" d="M31 450H492V220H451V410H31V450Z"  />
<glyph unicode="&#xAD;" horiz-adv-x="292" d="M242 292Q243 288 243 281T244 269Q244 264 244 258T242 246H50Q49 251 49 257T48 269Q48 274 48 281T50 292H242Z"  />
<glyph unicode="&#xAE;" horiz-adv-x="884" d="M442 -18Q363 -18 294 12T172 94T90 216T60 365Q60 444 90 513T172 635T293 717T442 747Q521 747 590 717T712 635T794 514T824 365Q824 286 794 216T712 94T591 12T442 -18ZM442 19Q512 19 573 46T680 121T752 231T779 365Q779 436 753 499T680 609T573 683T442 710Q372 710 311 683T204 609T132 499T105 365Q105 294 131 231T203 121T310 47T442 19ZM315 184V547H269Q269 555 269 558T268 565Q268 568 268 571T269 583H475Q495 583 508 580T533 572Q565 558 580 529T596 465Q596 448 592 431T578 397T550 367T508 347L590 184H632Q634 177 634 174T635 167Q635 163 635 160T632 149H559L462 343H357V184H409Q411 177 411 174T412 167Q412 163 412 160T409 149H269Q269 157 269 160T268 167Q268 170 268 173T269 184H315ZM464 380Q502 380 526 399T551 464Q551 493 541 510T512 537Q494 546 463 546H357V380H464Z"  />
<glyph unicode="&#xAF;" horiz-adv-x="332" d="M22 643H309V603H22V643Z"  />
<glyph unicode="&#xB0;" horiz-adv-x="410" d="M59 583Q59 614 70 641T100 687T147 718T205 729Q236 729 263 718T309 688T340 641T351 583Q351 552 340 525T310 479T263 448T205 437Q174 437 147 448T101 478T70 525T59 583ZM205 471Q227 471 247 479T281 503T303 538T312 583Q312 607 304 627T281 663T247 686T205 695Q182 695 163 687T129 663T107 628T98 583Q98 559 106 539T129 503T162 480T205 471Z"  />
<glyph unicode="&#xB1;" horiz-adv-x="523" d="M31 417H242V628H283V417H492V377H283V166H242V377H31V417ZM31 80H492V40H31V80Z"  />
<glyph unicode="&#xB2;" horiz-adv-x="357" d="M262 367V418Q266 420 271 420T279 421Q282 421 287 421T296 418V334H31Q38 380 70 414T144 475Q165 488 184 499T219 522T243 549T252 587Q252 621 230 636T172 651Q130 651 101 636T53 602V644Q58 648 68 654T94 667T129 678T172 683Q232 683 261 657T291 588Q291 562 281 544T255 510T217 481T172 454Q131 429 111 409T79 367H262Z"  />
<glyph unicode="&#xB3;" horiz-adv-x="357" d="M31 389Q56 376 84 369T153 361Q195 361 225 378T255 431Q255 452 247 465T223 485T189 494T147 497H131Q129 501 129 506T128 515Q128 518 128 523T131 532H151Q167 532 183 535T212 545T233 565T242 595Q242 619 223 635T154 651Q119 651 92 642T42 620V654Q45 656 54 660T79 670T114 679T159 683Q192 683 214 676T251 657T272 630T279 599Q279 581 273 567T256 543T233 525T211 516Q258 510 276 486T294 431Q294 412 287 394T262 360T216 336T148 327Q106 327 76 336T31 351V389Z"  />
<glyph unicode="&#xB4;" horiz-adv-x="326" d="M181 711H249L123 575H78L181 711Z"  />
<glyph unicode="&#xB5;" horiz-adv-x="572" d="M99 -134V473H26Q24 481 24 491Q24 501 26 507H142V184Q142 149 146 120T164 69T202 35T265 23Q298 23 327 34T378 69T414 133T427 230V473H354Q352 481 352 491Q352 501 354 507H470V34H543Q545 28 545 18Q545 8 543 0H429V85Q402 35 361 11T256 -14Q220 -14 191 -4T142 31V-134H220Q222 -140 222 -151Q222 -160 220 -168H27Q25 -160 25 -151Q25 -140 27 -134H99Z"  />
<glyph unicode="&#xB6;" horiz-adv-x="649" d="M274 356Q221 356 181 370T114 409T73 467T59 539Q59 637 114 683T270 729H503V-180H460V692H317V-180H274V356Z"  />
<glyph unicode="&#xB7;" horiz-adv-x="238" d="M119 370Q105 370 93 381T81 413Q81 433 93 444T119 456Q133 456 145 445T157 413Q157 393 145 382T119 370Z"  />
<glyph unicode="&#xB8;" horiz-adv-x="312" d="M85 -160Q93 -164 108 -168T141 -173Q164 -173 180 -164T197 -132Q197 -109 181 -102T149 -94Q142 -94 132 -95T111 -102L95 -83L157 0H196L144 -66Q152 -64 168 -64Q201 -64 220 -83T239 -129Q239 -164 216 -186T147 -209Q124 -209 102 -202T73 -190L85 -160Z"  />
<glyph unicode="&#xB9;" horiz-adv-x="357" d="M168 364V646H90Q87 653 87 661Q87 668 90 676H202V364H274Q277 356 277 349Q277 341 274 334H90Q87 341 87 349Q87 356 90 364H168Z"  />
<glyph unicode="&#xBA;" horiz-adv-x="368" d="M185 412Q147 412 120 426T75 465T49 519T40 580Q40 611 48 641T74 694T119 732T185 747Q223 747 250 733T296 695T322 641T331 580Q331 549 323 519T296 465T251 427T185 412ZM51 340H320V307H51V340ZM185 445Q219 445 240 460T272 496T288 540T292 580Q292 597 288 620T273 664T240 699T185 714Q152 714 131 700T99 664T83 620T79 580Q79 563 83 540T98 496T131 460T185 445Z"  />
<glyph unicode="&#xBB;" horiz-adv-x="448" d="M166 253L31 478H80L214 253L80 28H31L166 253ZM369 253L234 478H283L417 253L283 28H234L369 253Z"  />
<glyph unicode="&#xBC;" horiz-adv-x="893" d="M187 364V646H109Q106 653 106 661Q106 668 109 676H221V364H293Q296 356 296 349Q296 341 293 334H109Q106 341 106 349Q106 356 109 364H187ZM630 683H674L256 -16H212L630 683ZM501 121L683 336H720V113H775Q778 105 778 98Q778 91 775 84H720V-6H684V84H501V121ZM684 113V296L532 113H684Z"  />
<glyph unicode="&#xBD;" horiz-adv-x="893" d="M168 364V646H90Q87 653 87 661Q87 668 90 676H202V364H274Q277 356 277 349Q277 341 274 334H90Q87 341 87 349Q87 356 90 364H168ZM593 683H637L219 -16H175L593 683ZM755 27V78Q759 80 764 80T772 81Q775 81 780 81T789 78V-6H524Q531 40 563 74T637 135Q658 148 677 159T712 182T736 209T745 247Q745 281 723 296T665 311Q623 311 594 296T546 262V304Q551 308 561 314T587 327T622 338T665 343Q725 343 754 317T784 248Q784 222 774 204T748 170T710 141T665 114Q624 89 604 69T572 27H755Z"  />
<glyph unicode="&#xBE;" horiz-adv-x="893" d="M104 389Q129 376 157 369T226 361Q268 361 298 378T328 431Q328 452 320 465T296 485T262 494T220 497H204Q202 501 202 506T201 515Q201 518 201 523T204 532H224Q240 532 256 535T285 545T306 565T315 595Q315 619 296 635T227 651Q192 651 165 642T115 620V654Q118 656 127 660T152 670T187 679T232 683Q265 683 287 676T324 657T345 630T352 599Q352 581 346 567T329 543T306 525T284 516Q331 510 349 486T367 431Q367 412 360 394T335 360T289 336T221 327Q179 327 149 336T104 351V389ZM652 683H696L278 -16H234L652 683ZM513 121L695 336H732V113H787Q790 105 790 98Q790 91 787 84H732V-6H696V84H513V121ZM696 113V296L544 113H696Z"  />
<glyph unicode="&#xBF;" horiz-adv-x="509" d="M280 420Q262 420 251 434T239 471Q239 492 250 506T280 521Q298 521 309 507T321 471Q321 449 310 435T280 420ZM445 -109Q416 -134 369 -157T261 -180Q219 -180 185 -167T126 -131T88 -78T74 -11Q74 14 79 36T96 81T126 127T168 177Q190 201 206 221T235 263T253 308T262 366H302Q301 333 296 309T280 262T255 219T218 173Q202 154 186 137T155 99Q141 78 131 54T120 -3Q120 -29 128 -54T154 -98T200 -130T270 -142Q298 -142 323 -135T371 -117T411 -92T445 -65V-109Z"  />
<glyph unicode="&#xC0;" horiz-adv-x="699" d="M81 34L332 738H385L616 34H684Q685 30 685 26T686 17Q686 12 686 8T684 0H472Q471 4 471 8T470 17Q470 22 470 26T472 34H568L501 246H195L122 34H214Q215 30 215 26T216 17Q216 12 216 8T214 0H15Q14 4 14 8T13 17Q13 22 13 26T15 34H81ZM488 283L355 701L209 283H488ZM217 923H285L388 787H343L217 923Z"  />
<glyph unicode="&#xC1;" horiz-adv-x="699" d="M81 34L332 738H385L616 34H684Q685 30 685 26T686 17Q686 12 686 8T684 0H472Q471 4 471 8T470 17Q470 22 470 26T472 34H568L501 246H195L122 34H214Q215 30 215 26T216 17Q216 12 216 8T214 0H15Q14 4 14 8T13 17Q13 22 13 26T15 34H81ZM488 283L355 701L209 283H488ZM421 923H489L363 787H318L421 923Z"  />
<glyph unicode="&#xC2;" horiz-adv-x="699" d="M81 34L332 738H385L616 34H684Q685 30 685 26T686 17Q686 12 686 8T684 0H472Q471 4 471 8T470 17Q470 22 470 26T472 34H568L501 246H195L122 34H214Q215 30 215 26T216 17Q216 12 216 8T214 0H15Q14 4 14 8T13 17Q13 22 13 26T15 34H81ZM488 283L355 701L209 283H488ZM338 923H382L488 787H441L359 885L277 787H232L338 923Z"  />
<glyph unicode="&#xC3;" horiz-adv-x="699" d="M81 34L332 738H385L616 34H684Q685 30 685 26T686 17Q686 12 686 8T684 0H472Q471 4 471 8T470 17Q470 22 470 26T472 34H568L501 246H195L122 34H214Q215 30 215 26T216 17Q216 12 216 8T214 0H15Q14 4 14 8T13 17Q13 22 13 26T15 34H81ZM488 283L355 701L209 283H488ZM181 812Q190 855 214 880T278 906Q305 906 325 897T359 879Q379 868 396 861T431 853Q455 853 466 870T483 906H521Q511 862 489 838T426 813Q402 813 380 823T335 845Q311 857 300 861T271 866Q259 866 250 860T235 846T225 828T219 812H181Z"  />
<glyph unicode="&#xC4;" horiz-adv-x="699" d="M81 34L332 738H385L616 34H684Q685 30 685 26T686 17Q686 12 686 8T684 0H472Q471 4 471 8T470 17Q470 22 470 26T472 34H568L501 246H195L122 34H214Q215 30 215 26T216 17Q216 12 216 8T214 0H15Q14 4 14 8T13 17Q13 22 13 26T15 34H81ZM488 283L355 701L209 283H488ZM440 807Q426 807 414 818T402 850Q402 870 414 881T440 893Q454 893 466 882T478 850Q478 830 466 819T440 807ZM270 807Q256 807 244 818T232 850Q232 870 244 881T270 893Q284 893 296 882T308 850Q308 830 296 819T270 807Z"  />
<glyph unicode="&#xC5;" horiz-adv-x="699" d="M81 34L324 716Q294 727 275 753T255 813Q255 834 263 853T285 886T319 909T359 917Q380 917 399 909T432 887T455 853T463 813Q463 779 443 753T392 715L616 34H684Q685 30 685 26T686 17Q686 12 686 8T684 0H472Q471 4 471 8T470 17Q470 22 470 26T472 34H568L501 246H195L122 34H214Q215 30 215 26T216 17Q216 12 216 8T214 0H15Q14 4 14 8T13 17Q13 22 13 26T15 34H81ZM359 739Q388 739 409 761T431 813Q431 842 410 864T359 887Q330 887 309 865T287 813Q287 784 308 762T359 739ZM488 283L355 701L209 283H488Z"  />
<glyph unicode="&#xC6;" horiz-adv-x="980" d="M71 34L410 695H316Q315 699 315 703T314 712Q314 717 314 721T316 729H914V544Q904 542 895 542Q884 542 874 544V693H553V394H839Q840 389 840 385T841 376Q841 371 841 367T839 358H553V36H880V185Q890 187 901 187Q910 187 920 185V0H428Q427 4 427 8T426 17Q426 22 426 26T428 34H508V257H227L112 34H206Q207 30 207 26T208 17Q208 12 208 8T206 0H7Q6 4 6 8T5 17Q5 22 5 26T7 34H71ZM508 293V695H451L245 293H508Z"  />
<glyph unicode="&#xC7;" horiz-adv-x="693" d="M279 -160Q287 -164 302 -168T335 -173Q358 -173 374 -164T391 -132Q391 -109 375 -102T343 -94Q336 -94 326 -95T305 -102L289 -83L340 -15Q269 -7 217 25T129 107T77 221T60 359Q60 435 80 505T139 629T236 715T372 747Q431 747 487 724T578 647V729Q588 731 597 731Q606 731 616 729V473Q606 471 597 471Q588 471 578 473V506Q578 548 565 585T527 650T462 694T371 710Q299 710 249 676T168 590T122 476T107 359Q107 271 130 208T193 103T284 42T390 22Q430 22 464 31T527 54T579 85T619 118V65Q605 53 583 39T532 12T467 -9T388 -18Q385 -18 382 -18T376 -17L338 -66Q346 -64 362 -64Q395 -64 414 -83T433 -129Q433 -164 410 -186T341 -209Q318 -209 296 -202T267 -190L279 -160Z"  />
<glyph unicode="&#xC8;" horiz-adv-x="612" d="M117 34V695H37Q36 699 36 703T35 712Q35 717 35 721T37 729H546V544Q536 542 527 542Q516 542 506 544V693H162V394H471Q472 389 472 385T473 376Q473 371 473 367T471 358H162V36H512V185Q522 187 533 187Q542 187 552 185V0H37Q36 4 36 8T35 17Q35 22 35 26T37 34H117ZM187 923H255L358 787H313L187 923Z"  />
<glyph unicode="&#xC9;" horiz-adv-x="612" d="M117 34V695H37Q36 699 36 703T35 712Q35 717 35 721T37 729H546V544Q536 542 527 542Q516 542 506 544V693H162V394H471Q472 389 472 385T473 376Q473 371 473 367T471 358H162V36H512V185Q522 187 533 187Q542 187 552 185V0H37Q36 4 36 8T35 17Q35 22 35 26T37 34H117ZM366 923H434L308 787H263L366 923Z"  />
<glyph unicode="&#xCA;" horiz-adv-x="612" d="M117 34V695H37Q36 699 36 703T35 712Q35 717 35 721T37 729H546V544Q536 542 527 542Q516 542 506 544V693H162V394H471Q472 389 472 385T473 376Q473 371 473 367T471 358H162V36H512V185Q522 187 533 187Q542 187 552 185V0H37Q36 4 36 8T35 17Q35 22 35 26T37 34H117ZM297 923H341L447 787H400L318 885L236 787H191L297 923Z"  />
<glyph unicode="&#xCB;" horiz-adv-x="612" d="M117 34V695H37Q36 699 36 703T35 712Q35 717 35 721T37 729H546V544Q536 542 527 542Q516 542 506 544V693H162V394H471Q472 389 472 385T473 376Q473 371 473 367T471 358H162V36H512V185Q522 187 533 187Q542 187 552 185V0H37Q36 4 36 8T35 17Q35 22 35 26T37 34H117ZM404 807Q390 807 378 818T366 850Q366 870 378 881T404 893Q418 893 430 882T442 850Q442 830 430 819T404 807ZM234 807Q220 807 208 818T196 850Q196 870 208 881T234 893Q248 893 260 882T272 850Q272 830 260 819T234 807Z"  />
<glyph unicode="&#xCC;" horiz-adv-x="295" d="M125 34V695H45Q44 699 44 703T43 712Q43 717 43 721T45 729H250Q251 725 251 721T252 712Q252 707 252 703T250 695H170V34H250Q251 30 251 26T252 17Q252 12 252 8T250 0H45Q44 4 44 8T43 17Q43 22 43 26T45 34H125ZM15 923H83L186 787H141L15 923Z"  />
<glyph unicode="&#xCD;" horiz-adv-x="295" d="M125 34V695H45Q44 699 44 703T43 712Q43 717 43 721T45 729H250Q251 725 251 721T252 712Q252 707 252 703T250 695H170V34H250Q251 30 251 26T252 17Q252 12 252 8T250 0H45Q44 4 44 8T43 17Q43 22 43 26T45 34H125ZM215 923H283L157 787H112L215 923Z"  />
<glyph unicode="&#xCE;" horiz-adv-x="295" d="M125 34V695H45Q44 699 44 703T43 712Q43 717 43 721T45 729H250Q251 725 251 721T252 712Q252 707 252 703T250 695H170V34H250Q251 30 251 26T252 17Q252 12 252 8T250 0H45Q44 4 44 8T43 17Q43 22 43 26T45 34H125ZM129 923H173L279 787H232L150 885L68 787H23L129 923Z"  />
<glyph unicode="&#xCF;" horiz-adv-x="295" d="M125 34V695H45Q44 699 44 703T43 712Q43 717 43 721T45 729H250Q251 725 251 721T252 712Q252 707 252 703T250 695H170V34H250Q251 30 251 26T252 17Q252 12 252 8T250 0H45Q44 4 44 8T43 17Q43 22 43 26T45 34H125ZM235 807Q221 807 209 818T197 850Q197 870 209 881T235 893Q249 893 261 882T273 850Q273 830 261 819T235 807ZM65 807Q51 807 39 818T27 850Q27 870 39 881T65 893Q79 893 91 882T103 850Q103 830 91 819T65 807Z"  />
<glyph unicode="&#xD0;" horiz-adv-x="709" d="M117 34V358H35V394H117V695H37Q36 699 36 703T35 712Q35 717 35 721T37 729H344Q395 729 429 721T491 699Q567 659 608 574T649 375Q649 331 642 284T620 192T579 110T518 45Q490 25 452 13T354 0H37Q36 4 36 8T35 17Q35 22 35 26T37 34H117ZM344 36Q397 36 430 46T489 77Q543 119 572 195T602 368Q602 475 566 552T460 666Q436 679 406 686T333 693H162V394H343V358H162V36H344Z"  />
<glyph unicode="&#xD1;" horiz-adv-x="721" d="M117 34V695H37Q36 699 36 703T35 712Q35 717 35 721T37 729H193L566 49V695H486Q485 699 485 703T484 712Q484 717 484 721T486 729H690Q691 725 691 721T692 712Q692 707 692 703T690 695H610V-9H549L161 698V34H241Q242 30 242 26T243 17Q243 10 241 0H37Q35 10 35 17Q35 22 35 26T37 34H117ZM196 812Q205 855 229 880T293 906Q320 906 340 897T374 879Q394 868 411 861T446 853Q470 853 481 870T498 906H536Q526 862 504 838T441 813Q417 813 395 823T350 845Q326 857 315 861T286 866Q274 866 265 860T250 846T240 828T234 812H196Z"  />
<glyph unicode="&#xD2;" horiz-adv-x="771" d="M386 -18Q293 -18 231 17T130 108T76 232T60 364Q60 407 67 452T89 539T130 620T191 686T275 730T386 747Q448 747 496 731T580 686T641 620T681 540T704 452T711 364Q711 300 695 232T641 109T541 18T386 -18ZM386 19Q448 19 499 43T587 112T644 221T664 364Q664 443 644 507T587 616T499 685T386 710Q324 710 273 686T184 616T127 507T107 364Q107 285 127 221T184 112T272 43T386 19ZM277 923H345L448 787H403L277 923Z"  />
<glyph unicode="&#xD3;" horiz-adv-x="771" d="M386 -18Q293 -18 231 17T130 108T76 232T60 364Q60 407 67 452T89 539T130 620T191 686T275 730T386 747Q448 747 496 731T580 686T641 620T681 540T704 452T711 364Q711 300 695 232T641 109T541 18T386 -18ZM386 19Q448 19 499 43T587 112T644 221T664 364Q664 443 644 507T587 616T499 685T386 710Q324 710 273 686T184 616T127 507T107 364Q107 285 127 221T184 112T272 43T386 19ZM441 923H509L383 787H338L441 923Z"  />
<glyph unicode="&#xD4;" horiz-adv-x="771" d="M386 -18Q293 -18 231 17T130 108T76 232T60 364Q60 407 67 452T89 539T130 620T191 686T275 730T386 747Q448 747 496 731T580 686T641 620T681 540T704 452T711 364Q711 300 695 232T641 109T541 18T386 -18ZM386 19Q448 19 499 43T587 112T644 221T664 364Q664 443 644 507T587 616T499 685T386 710Q324 710 273 686T184 616T127 507T107 364Q107 285 127 221T184 112T272 43T386 19ZM353 923H397L503 787H456L374 885L292 787H247L353 923Z"  />
<glyph unicode="&#xD5;" horiz-adv-x="771" d="M386 -18Q293 -18 231 17T130 108T76 232T60 364Q60 407 67 452T89 539T130 620T191 686T275 730T386 747Q448 747 496 731T580 686T641 620T681 540T704 452T711 364Q711 300 695 232T641 109T541 18T386 -18ZM386 19Q448 19 499 43T587 112T644 221T664 364Q664 443 644 507T587 616T499 685T386 710Q324 710 273 686T184 616T127 507T107 364Q107 285 127 221T184 112T272 43T386 19ZM214 812Q223 855 247 880T311 906Q338 906 358 897T392 879Q412 868 429 861T464 853Q488 853 499 870T516 906H554Q544 862 522 838T459 813Q435 813 413 823T368 845Q344 857 333 861T304 866Q292 866 283 860T268 846T258 828T252 812H214Z"  />
<glyph unicode="&#xD6;" horiz-adv-x="771" d="M386 -18Q293 -18 231 17T130 108T76 232T60 364Q60 407 67 452T89 539T130 620T191 686T275 730T386 747Q448 747 496 731T580 686T641 620T681 540T704 452T711 364Q711 300 695 232T641 109T541 18T386 -18ZM386 19Q448 19 499 43T587 112T644 221T664 364Q664 443 644 507T587 616T499 685T386 710Q324 710 273 686T184 616T127 507T107 364Q107 285 127 221T184 112T272 43T386 19ZM485 807Q471 807 459 818T447 850Q447 870 459 881T485 893Q499 893 511 882T523 850Q523 830 511 819T485 807ZM315 807Q301 807 289 818T277 850Q277 870 289 881T315 893Q329 893 341 882T353 850Q353 830 341 819T315 807Z"  />
<glyph unicode="&#xD7;" horiz-adv-x="523" d="M233 337L84 485L113 514L262 366L410 514L439 485L291 337L439 188L410 159L262 308L113 159L84 188L233 337Z"  />
<glyph unicode="&#xD8;" horiz-adv-x="749" d="M123 105Q83 161 67 229T50 364Q50 407 57 452T79 539T120 620T181 686T265 730T376 747Q452 747 508 723T602 656L681 747L711 717L629 623Q668 567 684 499T701 364Q701 300 685 232T631 109T531 18T376 -18Q300 -18 245 6T150 72L71 -19L41 11L123 105ZM573 622Q537 665 487 687T376 710Q314 710 263 686T174 616T117 507T97 364Q97 229 154 140L573 622ZM180 106Q216 64 266 42T376 19Q438 19 489 43T577 112T634 221T654 364Q654 431 640 487T598 588L180 106Z"  />
<glyph unicode="&#xD9;" horiz-adv-x="725" d="M111 695H31Q30 699 30 703T29 712Q29 717 29 721T31 729H236Q237 725 237 721T238 712Q238 707 238 703T236 695H156V250Q156 184 175 140T223 70T290 33T363 22Q399 22 435 33T502 70T550 140T569 250V695H489Q488 699 488 703T487 712Q487 717 487 721T489 729H694Q695 725 695 721T696 712Q696 707 696 703T694 695H614V238Q614 185 600 139T555 58T477 3T363 -18Q297 -18 250 2T171 57T126 138T111 238V695ZM238 923H306L409 787H364L238 923Z"  />
<glyph unicode="&#xDA;" horiz-adv-x="725" d="M111 695H31Q30 699 30 703T29 712Q29 717 29 721T31 729H236Q237 725 237 721T238 712Q238 707 238 703T236 695H156V250Q156 184 175 140T223 70T290 33T363 22Q399 22 435 33T502 70T550 140T569 250V695H489Q488 699 488 703T487 712Q487 717 487 721T489 729H694Q695 725 695 721T696 712Q696 707 696 703T694 695H614V238Q614 185 600 139T555 58T477 3T363 -18Q297 -18 250 2T171 57T126 138T111 238V695ZM431 923H499L373 787H328L431 923Z"  />
<glyph unicode="&#xDB;" horiz-adv-x="725" d="M111 695H31Q30 699 30 703T29 712Q29 717 29 721T31 729H236Q237 725 237 721T238 712Q238 707 238 703T236 695H156V250Q156 184 175 140T223 70T290 33T363 22Q399 22 435 33T502 70T550 140T569 250V695H489Q488 699 488 703T487 712Q487 717 487 721T489 729H694Q695 725 695 721T696 712Q696 707 696 703T694 695H614V238Q614 185 600 139T555 58T477 3T363 -18Q297 -18 250 2T171 57T126 138T111 238V695ZM330 923H374L480 787H433L351 885L269 787H224L330 923Z"  />
<glyph unicode="&#xDC;" horiz-adv-x="725" d="M111 695H31Q30 699 30 703T29 712Q29 717 29 721T31 729H236Q237 725 237 721T238 712Q238 707 238 703T236 695H156V250Q156 184 175 140T223 70T290 33T363 22Q399 22 435 33T502 70T550 140T569 250V695H489Q488 699 488 703T487 712Q487 717 487 721T489 729H694Q695 725 695 721T696 712Q696 707 696 703T694 695H614V238Q614 185 600 139T555 58T477 3T363 -18Q297 -18 250 2T171 57T126 138T111 238V695ZM445 807Q431 807 419 818T407 850Q407 870 419 881T445 893Q459 893 471 882T483 850Q483 830 471 819T445 807ZM275 807Q261 807 249 818T237 850Q237 870 249 881T275 893Q289 893 301 882T313 850Q313 830 301 819T275 807Z"  />
<glyph unicode="&#xDD;" horiz-adv-x="701" d="M323 34V295L70 695H15Q14 699 14 703T13 712Q13 717 13 721T15 729H227Q228 725 228 721T229 712Q229 707 229 703T227 695H119L350 331L583 695H482Q481 699 481 703T480 712Q480 717 480 721T482 729H686Q687 725 687 721T688 712Q688 707 688 703T686 695H630L368 294V34H453Q454 30 454 26T455 17Q455 12 455 8T453 0H238Q237 4 237 8T236 17Q236 22 236 26T238 34H323ZM423 923H491L365 787H320L423 923Z"  />
<glyph unicode="&#xDE;" horiz-adv-x="605" d="M117 34V695H37Q36 699 36 703T35 712Q35 717 35 721T37 729H252Q253 725 253 721T254 712Q254 707 254 703T252 695H162V567H383Q428 567 462 552T521 510T557 448T569 372Q569 336 559 300T527 236T470 189T383 171H162V34H252Q253 30 253 26T254 17Q254 12 254 8T252 0H37Q36 4 36 8T35 17Q35 22 35 26T37 34H117ZM357 207Q393 207 423 216T475 246T509 296T522 370Q522 411 510 441T477 492T426 521T361 531H162V207H357Z"  />
<glyph unicode="&#xDF;" horiz-adv-x="599" d="M105 34V541Q105 589 118 630T157 702T224 750T321 768Q370 768 407 754T468 716T505 659T517 591Q517 522 487 477T398 415Q479 395 517 341T555 198Q555 144 539 104T497 38T438 -2T368 -15Q330 -15 303 -10T267 -2V39Q291 30 315 27T362 23Q427 23 468 69T510 204Q510 252 496 287T456 346T396 382T321 394H297Q295 402 295 412Q295 423 297 431H307Q353 431 385 442T437 474T465 524T474 588Q474 618 465 644T437 689T387 720T316 731Q263 731 230 712T179 660T155 588T148 506V0H26Q24 8 24 17Q24 28 26 34H105Z"  />
<glyph unicode="&#xE0;" horiz-adv-x="517" d="M381 72Q365 52 348 36T308 9T257 -8T192 -14Q120 -14 80 24T39 128Q39 159 47 187T76 237T130 273T216 294L379 312V344Q379 378 373 404T350 449T308 476T241 485Q192 485 153 468T85 432V475Q95 482 110 490T147 505T194 516T253 521Q278 521 307 516T362 494T405 445T422 358V34H491Q493 28 493 17Q493 8 491 0H381V72ZM379 275L237 260Q199 256 171 248T122 224T92 185T82 127Q82 76 115 48T206 20Q236 20 267 29T322 57T363 104T379 171V275ZM137 711H205L308 575H263L137 711Z"  />
<glyph unicode="&#xE1;" horiz-adv-x="517" d="M381 72Q365 52 348 36T308 9T257 -8T192 -14Q120 -14 80 24T39 128Q39 159 47 187T76 237T130 273T216 294L379 312V344Q379 378 373 404T350 449T308 476T241 485Q192 485 153 468T85 432V475Q95 482 110 490T147 505T194 516T253 521Q278 521 307 516T362 494T405 445T422 358V34H491Q493 28 493 17Q493 8 491 0H381V72ZM379 275L237 260Q199 256 171 248T122 224T92 185T82 127Q82 76 115 48T206 20Q236 20 267 29T322 57T363 104T379 171V275ZM316 711H384L258 575H213L316 711Z"  />
<glyph unicode="&#xE2;" horiz-adv-x="517" d="M381 72Q365 52 348 36T308 9T257 -8T192 -14Q120 -14 80 24T39 128Q39 159 47 187T76 237T130 273T216 294L379 312V344Q379 378 373 404T350 449T308 476T241 485Q192 485 153 468T85 432V475Q95 482 110 490T147 505T194 516T253 521Q278 521 307 516T362 494T405 445T422 358V34H491Q493 28 493 17Q493 8 491 0H381V72ZM379 275L237 260Q199 256 171 248T122 224T92 185T82 127Q82 76 115 48T206 20Q236 20 267 29T322 57T363 104T379 171V275ZM224 711H268L374 575H327L245 673L163 575H118L224 711Z"  />
<glyph unicode="&#xE3;" horiz-adv-x="517" d="M381 72Q365 52 348 36T308 9T257 -8T192 -14Q120 -14 80 24T39 128Q39 159 47 187T76 237T130 273T216 294L379 312V344Q379 378 373 404T350 449T308 476T241 485Q192 485 153 468T85 432V475Q95 482 110 490T147 505T194 516T253 521Q278 521 307 516T362 494T405 445T422 358V34H491Q493 28 493 17Q493 8 491 0H381V72ZM379 275L237 260Q199 256 171 248T122 224T92 185T82 127Q82 76 115 48T206 20Q236 20 267 29T322 57T363 104T379 171V275ZM73 600Q82 643 106 668T170 694Q197 694 217 685T251 667Q271 656 288 649T323 641Q347 641 358 658T375 694H413Q403 650 381 626T318 601Q294 601 272 611T227 633Q203 645 192 649T163 654Q151 654 142 648T127 634T117 616T111 600H73Z"  />
<glyph unicode="&#xE4;" horiz-adv-x="517" d="M381 72Q365 52 348 36T308 9T257 -8T192 -14Q120 -14 80 24T39 128Q39 159 47 187T76 237T130 273T216 294L379 312V344Q379 378 373 404T350 449T308 476T241 485Q192 485 153 468T85 432V475Q95 482 110 490T147 505T194 516T253 521Q278 521 307 516T362 494T405 445T422 358V34H491Q493 28 493 17Q493 8 491 0H381V72ZM379 275L237 260Q199 256 171 248T122 224T92 185T82 127Q82 76 115 48T206 20Q236 20 267 29T322 57T363 104T379 171V275ZM331 595Q317 595 305 606T293 638Q293 658 305 669T331 681Q345 681 357 670T369 638Q369 618 357 607T331 595ZM161 595Q147 595 135 606T123 638Q123 658 135 669T161 681Q175 681 187 670T199 638Q199 618 187 607T161 595Z"  />
<glyph unicode="&#xE5;" horiz-adv-x="517" d="M381 72Q365 52 348 36T308 9T257 -8T192 -14Q120 -14 80 24T39 128Q39 159 47 187T76 237T130 273T216 294L379 312V344Q379 378 373 404T350 449T308 476T241 485Q192 485 153 468T85 432V475Q95 482 110 490T147 505T194 516T253 521Q278 521 307 516T362 494T405 445T422 358V34H491Q493 28 493 17Q493 8 491 0H381V72ZM379 275L237 260Q199 256 171 248T122 224T92 185T82 127Q82 76 115 48T206 20Q236 20 267 29T322 57T363 104T379 171V275ZM147 677Q147 698 155 717T177 750T211 773T251 781Q272 781 291 773T324 751T347 717T355 677Q355 656 347 637T325 604T291 581T251 573Q230 573 211 581T178 603T155 637T147 677ZM251 603Q280 603 301 625T323 677Q323 706 302 728T251 751Q222 751 201 729T179 677Q179 648 200 626T251 603Z"  />
<glyph unicode="&#xE6;" horiz-adv-x="821" d="M379 312V344Q379 376 373 402T350 446T308 475T241 485Q192 485 153 468T85 432V475Q95 482 110 490T147 505T194 516T253 521Q273 521 297 518T344 503T386 473T414 421Q439 467 480 494T581 521Q638 521 676 499T738 439T771 351T781 245H421Q421 198 434 158T471 88T531 43T613 26Q663 26 696 39T756 69V22Q730 8 693 -3T614 -14Q536 -14 484 19T406 107Q376 44 323 15T195 -14Q121 -14 80 24T39 128Q39 159 47 187T76 237T130 273T216 294L379 312ZM731 281Q731 314 725 350T703 416T657 465T579 485Q535 485 505 465T457 414T431 347T422 281H731ZM379 275L237 260Q199 256 171 248T122 224T92 185T82 127Q82 76 115 48T206 20Q236 20 267 29T322 57T363 104T379 171V275Z"  />
<glyph unicode="&#xE7;" horiz-adv-x="481" d="M165 -160Q173 -164 188 -168T221 -173Q244 -173 260 -164T277 -132Q277 -109 261 -102T229 -94Q222 -94 212 -95T191 -102L175 -83L229 -11Q184 -4 149 19T91 76T56 153T44 246Q44 304 57 353T96 439T162 496T256 517Q298 517 335 500T394 450V507Q402 509 412 509Q421 509 431 507V319Q421 317 412 317Q402 317 394 319V331Q394 401 362 441T261 481Q208 481 175 458T122 401T96 325T89 246Q89 192 103 151T141 82T200 40T276 26Q321 26 358 41T428 83V33Q405 19 367 3T268 -14H265L224 -66Q232 -64 248 -64Q281 -64 300 -83T319 -129Q319 -164 296 -186T227 -209Q204 -209 182 -202T153 -190L165 -160Z"  />
<glyph unicode="&#xE8;" horiz-adv-x="489" d="M424 22Q398 8 361 -3T282 -14Q218 -14 173 8T100 67T58 152T44 254Q44 308 56 356T93 441T157 499T249 521Q306 521 344 499T406 439T439 351T449 245H89Q92 198 105 158T141 88T200 43T281 26Q331 26 364 39T424 69V22ZM399 281Q399 314 393 350T371 416T325 465T247 485Q203 485 173 465T125 414T99 347T90 281H399ZM147 711H215L318 575H273L147 711Z"  />
<glyph unicode="&#xE9;" horiz-adv-x="489" d="M424 22Q398 8 361 -3T282 -14Q218 -14 173 8T100 67T58 152T44 254Q44 308 56 356T93 441T157 499T249 521Q306 521 344 499T406 439T439 351T449 245H89Q92 198 105 158T141 88T200 43T281 26Q331 26 364 39T424 69V22ZM399 281Q399 314 393 350T371 416T325 465T247 485Q203 485 173 465T125 414T99 347T90 281H399ZM301 711H369L243 575H198L301 711Z"  />
<glyph unicode="&#xEA;" horiz-adv-x="489" d="M424 22Q398 8 361 -3T282 -14Q218 -14 173 8T100 67T58 152T44 254Q44 308 56 356T93 441T157 499T249 521Q306 521 344 499T406 439T439 351T449 245H89Q92 198 105 158T141 88T200 43T281 26Q331 26 364 39T424 69V22ZM399 281Q399 314 393 350T371 416T325 465T247 485Q203 485 173 465T125 414T99 347T90 281H399ZM232 711H276L382 575H335L253 673L171 575H126L232 711Z"  />
<glyph unicode="&#xEB;" horiz-adv-x="489" d="M424 22Q398 8 361 -3T282 -14Q218 -14 173 8T100 67T58 152T44 254Q44 308 56 356T93 441T157 499T249 521Q306 521 344 499T406 439T439 351T449 245H89Q92 198 105 158T141 88T200 43T281 26Q331 26 364 39T424 69V22ZM399 281Q399 314 393 350T371 416T325 465T247 485Q203 485 173 465T125 414T99 347T90 281H399ZM345 595Q331 595 319 606T307 638Q307 658 319 669T345 681Q359 681 371 670T383 638Q383 618 371 607T345 595ZM175 595Q161 595 149 606T137 638Q137 658 149 669T175 681Q189 681 201 670T213 638Q213 618 201 607T175 595Z"  />
<glyph unicode="&#xEC;" horiz-adv-x="262" d="M112 34V473H39Q37 481 37 490Q37 501 39 507H155V34H228Q230 28 230 17Q230 8 228 0H39Q37 8 37 17Q37 28 39 34H112ZM-7 711H61L164 575H119L-7 711Z"  />
<glyph unicode="&#xED;" horiz-adv-x="262" d="M112 34V473H39Q37 481 37 490Q37 501 39 507H155V34H228Q230 28 230 17Q230 8 228 0H39Q37 8 37 17Q37 28 39 34H112ZM181 711H249L123 575H78L181 711Z"  />
<glyph unicode="&#xEE;" horiz-adv-x="262" d="M112 34V473H39Q37 481 37 490Q37 501 39 507H155V34H228Q230 28 230 17Q230 8 228 0H39Q37 8 37 17Q37 28 39 34H112ZM85 711H129L235 575H188L106 673L24 575H-21L85 711Z"  />
<glyph unicode="&#xEF;" horiz-adv-x="262" d="M112 34V473H39Q37 481 37 490Q37 501 39 507H155V34H228Q230 28 230 17Q230 8 228 0H39Q37 8 37 17Q37 28 39 34H112ZM192 595Q178 595 166 606T154 638Q154 658 166 669T192 681Q206 681 218 670T230 638Q230 618 218 607T192 595ZM22 595Q8 595 -4 606T-16 638Q-16 658 -4 669T22 681Q36 681 48 670T60 638Q60 618 48 607T22 595Z"  />
<glyph unicode="&#xF0;" horiz-adv-x="531" d="M149 601L234 676Q186 710 127 734L142 768Q176 754 206 738T264 703L338 768L361 742L292 681Q346 637 383 584T444 475T477 365T487 263Q487 208 474 158T433 70T364 9T265 -14Q208 -14 167 8T98 67T57 150T44 247Q44 296 57 343T97 426T166 485T265 507Q307 507 344 493T403 450Q377 513 343 563T262 654L172 575L149 601ZM265 23Q321 23 355 48T409 108T435 182T442 247Q442 273 436 311T410 384T356 445T265 470Q209 470 175 445T121 385T96 311T89 247Q89 221 95 183T121 109T174 48T265 23Z"  />
<glyph unicode="&#xF1;" horiz-adv-x="574" d="M104 34V473H31Q29 481 29 490Q29 501 31 507H145V422Q172 472 213 496T318 521Q393 521 434 479T475 348V34H548Q550 28 550 17Q550 8 548 0H359Q357 8 357 17Q357 28 359 34H432V323Q432 357 428 386T410 438T372 472T309 484Q276 484 247 473T196 438T160 374T147 277V34H220Q222 28 222 17Q222 8 220 0H31Q29 8 29 17Q29 28 31 34H104ZM115 600Q124 643 148 668T212 694Q239 694 259 685T293 667Q313 656 330 649T365 641Q389 641 400 658T417 694H455Q445 650 423 626T360 601Q336 601 314 611T269 633Q245 645 234 649T205 654Q193 654 184 648T169 634T159 616T153 600H115Z"  />
<glyph unicode="&#xF2;" horiz-adv-x="531" d="M265 -14Q208 -14 167 8T98 68T57 154T44 254Q44 305 57 353T97 438T166 498T265 521Q322 521 364 499T433 439T473 353T487 254Q487 203 474 155T433 70T364 9T265 -14ZM265 23Q321 23 355 49T409 111T435 187T442 254Q442 281 436 320T410 396T356 458T265 484Q209 484 175 458T121 396T96 321T89 254Q89 227 95 188T121 112T174 49T265 23ZM147 711H215L318 575H273L147 711Z"  />
<glyph unicode="&#xF3;" horiz-adv-x="531" d="M265 -14Q208 -14 167 8T98 68T57 154T44 254Q44 305 57 353T97 438T166 498T265 521Q322 521 364 499T433 439T473 353T487 254Q487 203 474 155T433 70T364 9T265 -14ZM265 23Q321 23 355 49T409 111T435 187T442 254Q442 281 436 320T410 396T356 458T265 484Q209 484 175 458T121 396T96 321T89 254Q89 227 95 188T121 112T174 49T265 23ZM322 711H390L264 575H219L322 711Z"  />
<glyph unicode="&#xF4;" horiz-adv-x="531" d="M265 -14Q208 -14 167 8T98 68T57 154T44 254Q44 305 57 353T97 438T166 498T265 521Q322 521 364 499T433 439T473 353T487 254Q487 203 474 155T433 70T364 9T265 -14ZM265 23Q321 23 355 49T409 111T435 187T442 254Q442 281 436 320T410 396T356 458T265 484Q209 484 175 458T121 396T96 321T89 254Q89 227 95 188T121 112T174 49T265 23ZM242 711H286L392 575H345L263 673L181 575H136L242 711Z"  />
<glyph unicode="&#xF5;" horiz-adv-x="531" d="M265 -14Q208 -14 167 8T98 68T57 154T44 254Q44 305 57 353T97 438T166 498T265 521Q322 521 364 499T433 439T473 353T487 254Q487 203 474 155T433 70T364 9T265 -14ZM265 23Q321 23 355 49T409 111T435 187T442 254Q442 281 436 320T410 396T356 458T265 484Q209 484 175 458T121 396T96 321T89 254Q89 227 95 188T121 112T174 49T265 23ZM95 600Q104 643 128 668T192 694Q219 694 239 685T273 667Q293 656 310 649T345 641Q369 641 380 658T397 694H435Q425 650 403 626T340 601Q316 601 294 611T249 633Q225 645 214 649T185 654Q173 654 164 648T149 634T139 616T133 600H95Z"  />
<glyph unicode="&#xF6;" horiz-adv-x="531" d="M265 -14Q208 -14 167 8T98 68T57 154T44 254Q44 305 57 353T97 438T166 498T265 521Q322 521 364 499T433 439T473 353T487 254Q487 203 474 155T433 70T364 9T265 -14ZM265 23Q321 23 355 49T409 111T435 187T442 254Q442 281 436 320T410 396T356 458T265 484Q209 484 175 458T121 396T96 321T89 254Q89 227 95 188T121 112T174 49T265 23ZM350 595Q336 595 324 606T312 638Q312 658 324 669T350 681Q364 681 376 670T388 638Q388 618 376 607T350 595ZM180 595Q166 595 154 606T142 638Q142 658 154 669T180 681Q194 681 206 670T218 638Q218 618 206 607T180 595Z"  />
<glyph unicode="&#xF7;" horiz-adv-x="523" d="M274 489Q256 489 245 503T233 539Q233 561 244 575T274 590Q292 590 303 576T315 539Q315 518 304 504T274 489ZM31 356H492V316H31V356ZM274 82Q256 82 245 96T233 132Q233 154 244 168T274 183Q292 183 303 169T315 132Q315 111 304 97T274 82Z"  />
<glyph unicode="&#xF8;" horiz-adv-x="516" d="M90 70Q63 107 50 155T37 254Q37 305 50 353T90 438T159 498T258 521Q305 521 341 506T405 463L459 531L485 509L427 436Q454 399 467 352T480 254Q480 203 467 155T426 70T357 9T258 -14Q211 -14 175 1T112 43L57 -25L31 -3L90 70ZM379 431Q359 454 330 469T258 484Q202 484 168 458T114 396T89 321T82 254Q82 226 89 185T118 105L379 431ZM138 75Q158 52 187 38T258 23Q314 23 348 49T402 111T428 187T435 254Q435 282 428 323T399 402L138 75Z"  />
<glyph unicode="&#xF9;" horiz-adv-x="569" d="M99 473H26Q24 481 24 491Q24 501 26 507H142V184Q142 149 146 120T164 69T202 35T265 23Q298 23 327 34T378 69T414 133T427 230V473H354Q352 481 352 491Q352 501 354 507H470V34H543Q545 28 545 18Q545 8 543 0H429V85Q402 35 361 11T256 -14Q181 -14 140 28T99 159V473ZM137 711H205L308 575H263L137 711Z"  />
<glyph unicode="&#xFA;" horiz-adv-x="569" d="M99 473H26Q24 481 24 491Q24 501 26 507H142V184Q142 149 146 120T164 69T202 35T265 23Q298 23 327 34T378 69T414 133T427 230V473H354Q352 481 352 491Q352 501 354 507H470V34H543Q545 28 545 18Q545 8 543 0H429V85Q402 35 361 11T256 -14Q181 -14 140 28T99 159V473ZM331 711H399L273 575H228L331 711Z"  />
<glyph unicode="&#xFB;" horiz-adv-x="569" d="M99 473H26Q24 481 24 491Q24 501 26 507H142V184Q142 149 146 120T164 69T202 35T265 23Q298 23 327 34T378 69T414 133T427 230V473H354Q352 481 352 491Q352 501 354 507H470V34H543Q545 28 545 18Q545 8 543 0H429V85Q402 35 361 11T256 -14Q181 -14 140 28T99 159V473ZM244 711H288L394 575H347L265 673L183 575H138L244 711Z"  />
<glyph unicode="&#xFC;" horiz-adv-x="569" d="M99 473H26Q24 481 24 491Q24 501 26 507H142V184Q142 149 146 120T164 69T202 35T265 23Q298 23 327 34T378 69T414 133T427 230V473H354Q352 481 352 491Q352 501 354 507H470V34H543Q545 28 545 18Q545 8 543 0H429V85Q402 35 361 11T256 -14Q181 -14 140 28T99 159V473ZM342 595Q328 595 316 606T304 638Q304 658 316 669T342 681Q356 681 368 670T380 638Q380 618 368 607T342 595ZM172 595Q158 595 146 606T134 638Q134 658 146 669T172 681Q186 681 198 670T210 638Q210 618 198 607T172 595Z"  />
<glyph unicode="&#xFD;" horiz-adv-x="519" d="M51 -129Q65 -135 80 -138T113 -142Q132 -142 147 -138T176 -122T203 -85T230 -22L237 -2L65 473H12Q10 481 10 491Q10 501 12 507H187Q189 501 189 491Q189 481 187 473H113L262 55L411 473H345Q343 481 343 491Q343 501 345 507H507Q509 501 509 491Q509 481 507 473H453L263 -59Q252 -91 240 -111T213 -146Q189 -169 164 -174T114 -180Q93 -180 79 -176T51 -166V-129ZM341 711H409L283 575H238L341 711Z"  />
<glyph unicode="&#xFE;" horiz-adv-x="546" d="M85 -134V724H12Q10 732 10 741Q10 752 12 758H128V420Q153 474 197 497T292 521Q352 521 392 497T457 433T492 342T502 239Q502 185 489 139T450 59T387 6T303 -14Q241 -14 199 9T128 87V-134H206Q208 -140 208 -151Q208 -160 206 -168H13Q11 -160 11 -151Q11 -140 13 -134H85ZM289 23Q343 23 376 46T427 104T451 176T457 243Q457 293 448 337T418 413T366 465T290 484Q264 484 235 474T182 438T141 367T125 252Q125 220 131 181T154 106T204 47T289 23Z"  />
<glyph unicode="&#xFF;" horiz-adv-x="519" d="M51 -129Q65 -135 80 -138T113 -142Q132 -142 147 -138T176 -122T203 -85T230 -22L237 -2L65 473H12Q10 481 10 491Q10 501 12 507H187Q189 501 189 491Q189 481 187 473H113L262 55L411 473H345Q343 481 343 491Q343 501 345 507H507Q509 501 509 491Q509 481 507 473H453L263 -59Q252 -91 240 -111T213 -146Q189 -169 164 -174T114 -180Q93 -180 79 -176T51 -166V-129ZM335 595Q321 595 309 606T297 638Q297 658 309 669T335 681Q349 681 361 670T373 638Q373 618 361 607T335 595ZM165 595Q151 595 139 606T127 638Q127 658 139 669T165 681Q179 681 191 670T203 638Q203 618 191 607T165 595Z"  />
<glyph unicode="&#x131;" horiz-adv-x="262" d="M112 34V473H39Q37 481 37 490Q37 501 39 507H155V34H228Q230 28 230 17Q230 8 228 0H39Q37 8 37 17Q37 28 39 34H112Z"  />
<glyph unicode="&#x152;" horiz-adv-x="1042" d="M942 36V185Q952 187 963 187Q972 187 982 185V0H580Q547 0 489 -3T363 -7Q284 -7 227 24T132 106T78 225T60 364Q60 433 77 499T133 618T233 703T381 736Q413 736 444 735T504 733T556 730T594 729H976V544Q966 542 957 542Q946 542 936 544V693H587V394H901Q902 389 902 385T903 376Q903 371 903 367T901 358H587V36H942ZM542 690Q531 691 514 692T475 695T430 698T385 699Q320 699 269 676T181 609T126 503T107 364Q107 284 127 222T182 117T264 52T368 30Q392 30 419 31T472 33T516 36T542 40V690Z"  />
<glyph unicode="&#x153;" horiz-adv-x="885" d="M820 22Q794 8 757 -3T678 -14Q591 -14 539 25T463 129Q438 65 389 26T265 -14Q208 -14 167 8T98 68T57 154T44 254Q44 305 57 353T97 438T166 498T265 521Q340 521 388 483T461 382Q484 445 528 483T645 521Q702 521 740 499T802 439T835 351T845 245H485Q488 198 501 158T537 88T596 43T677 26Q727 26 760 39T820 69V22ZM795 281Q795 314 789 350T767 416T721 465T643 485Q599 485 569 465T521 414T495 347T486 281H795ZM265 23Q321 23 355 49T409 111T435 187T442 254Q442 281 436 320T410 396T356 458T265 484Q209 484 175 458T121 396T96 321T89 254Q89 227 95 188T121 112T174 49T265 23Z"  />
<glyph unicode="&#x160;" horiz-adv-x="617" d="M53 238Q63 240 72 240Q81 240 91 238V212Q91 172 108 137T157 76T233 35T331 20Q373 20 409 29T472 58T513 106T528 172Q528 209 516 236T484 282T437 315T381 336L207 386Q179 394 154 407T111 441T81 491T70 559Q70 603 87 638T133 697T202 734T286 747Q360 747 409 726T502 651V729Q512 731 521 731Q530 731 540 729V509Q530 507 521 507Q512 507 502 509V526Q502 563 488 596T448 655T382 695T291 710Q256 710 224 701T168 674T130 627T115 560Q115 504 147 472T237 423L395 379Q489 353 532 305T575 176Q575 131 558 95T509 34T433 -4T334 -17Q257 -17 198 9T91 93V0Q81 -2 72 -2Q63 -2 53 0V238ZM195 923H242L324 825L406 923H451L345 787H301L195 923Z"  />
<glyph unicode="&#x161;" horiz-adv-x="478" d="M52 169Q62 171 71 171Q81 171 89 169V157Q89 122 102 97T137 56T188 32T252 24Q278 24 302 29T345 45T375 76T387 125Q387 150 378 167T353 197T316 217T270 232L182 255Q116 272 88 302T59 379Q59 416 72 442T107 486T158 511T218 519Q268 519 305 504T367 457V507Q375 509 385 509Q394 509 404 507V356Q394 354 385 354Q375 354 367 356V382Q367 395 359 412T333 446T288 473T221 484Q198 484 176 479T138 463T111 433T101 389Q101 365 108 349T129 323T162 305T206 292L287 271Q329 260 356 247T401 217T425 178T432 126Q432 66 385 28T255 -11Q208 -11 162 5T89 57V0Q81 -2 71 -2Q62 -2 52 0V169ZM115 711H162L244 613L326 711H371L265 575H221L115 711Z"  />
<glyph unicode="&#x178;" horiz-adv-x="701" d="M323 34V295L70 695H15Q14 699 14 703T13 712Q13 717 13 721T15 729H227Q228 725 228 721T229 712Q229 707 229 703T227 695H119L350 331L583 695H482Q481 699 481 703T480 712Q480 717 480 721T482 729H686Q687 725 687 721T688 712Q688 707 688 703T686 695H630L368 294V34H453Q454 30 454 26T455 17Q455 12 455 8T453 0H238Q237 4 237 8T236 17Q236 22 236 26T238 34H323ZM430 807Q416 807 404 818T392 850Q392 870 404 881T430 893Q444 893 456 882T468 850Q468 830 456 819T430 807ZM260 807Q246 807 234 818T222 850Q222 870 234 881T260 893Q274 893 286 882T298 850Q298 830 286 819T260 807Z"  />
<glyph unicode="&#x17D;" horiz-adv-x="600" d="M35 37L496 693H94V540Q84 538 73 538Q64 538 54 540V729H545V692L84 36H525V192Q535 194 546 194Q555 194 565 192V0H35V37ZM184 923H231L313 825L395 923H440L334 787H290L184 923Z"  />
<glyph unicode="&#x17E;" horiz-adv-x="416" d="M24 43L340 470H74V366Q66 364 56 364Q47 364 37 366V507H383V464L67 37H355V141Q363 143 373 143Q382 143 392 141V0H24V43ZM85 711H132L214 613L296 711H341L235 575H191L85 711Z"  />
<glyph unicode="&#x192;" horiz-adv-x="523" d="M22 -134Q33 -138 45 -141T75 -145Q112 -145 133 -126T163 -53L251 470H137Q137 473 137 478T139 488Q140 493 141 498T144 507H258L277 622Q284 662 299 690T336 735T381 760T430 768Q453 768 468 765T493 758L484 722Q476 725 463 728T429 731Q388 731 359 705T319 615L301 507H446Q446 504 446 499T445 488Q444 483 443 478T439 470H294L207 -54Q200 -94 187 -118T155 -156T115 -175T72 -180Q55 -180 40 -177T13 -169L22 -134Z"  />
<glyph unicode="&#x2C6;" horiz-adv-x="326" d="M141 711H185L291 575H244L162 673L80 575H35L141 711Z"  />
<glyph unicode="&#x2C7;" horiz-adv-x="326" d="M35 711H82L164 613L246 711H291L185 575H141L35 711Z"  />
<glyph unicode="&#x2C9;" horiz-adv-x="332" d="M22 643H309V603H22V643Z"  />
<glyph unicode="&#x2DA;" horiz-adv-x="352" d="M72 677Q72 698 80 717T102 750T136 773T176 781Q197 781 216 773T249 751T272 717T280 677Q280 656 272 637T250 604T216 581T176 573Q155 573 136 581T103 603T80 637T72 677ZM176 603Q205 603 226 625T248 677Q248 706 227 728T176 751Q147 751 126 729T104 677Q104 648 125 626T176 603Z"  />
<glyph unicode="&#x2DC;" horiz-adv-x="350" d="M5 600Q14 643 38 668T102 694Q129 694 149 685T183 667Q203 656 220 649T255 641Q279 641 290 658T307 694H345Q335 650 313 626T250 601Q226 601 204 611T159 633Q135 645 124 649T95 654Q83 654 74 648T59 634T49 616T43 600H5Z"  />
<glyph unicode="&#x3BC;" horiz-adv-x="572" d="M99 -134V473H26Q24 481 24 491Q24 501 26 507H142V184Q142 149 146 120T164 69T202 35T265 23Q298 23 327 34T378 69T414 133T427 230V473H354Q352 481 352 491Q352 501 354 507H470V34H543Q545 28 545 18Q545 8 543 0H429V85Q402 35 361 11T256 -14Q220 -14 191 -4T142 31V-134H220Q222 -140 222 -151Q222 -160 220 -168H27Q25 -160 25 -151Q25 -140 27 -134H99Z"  />
<glyph unicode="&#x2013;" horiz-adv-x="500" d="M0 295H500V258H0V295Z"  />
<glyph unicode="&#x2014;" horiz-adv-x="1000" d="M0 295H1000V258H0V295Z"  />
<glyph unicode="&#x2015;" horiz-adv-x="1000" d="M0 295H1000V258H0V295Z"  />
<glyph unicode="&#x2018;" horiz-adv-x="238" d="M160 711Q129 694 119 665T108 607Q115 610 126 610Q143 610 154 597T165 563Q165 542 154 527T120 512Q97 512 84 533T70 594Q70 630 79 657T102 703T132 733T160 747V711Z"  />
<glyph unicode="&#x2019;" horiz-adv-x="238" d="M78 548Q109 565 119 594T130 652Q122 649 112 649Q95 649 84 662T73 696Q73 717 84 732T118 747Q141 747 154 726T168 665Q168 629 159 602T136 556T106 526T78 512V548Z"  />
<glyph unicode="&#x201A;" horiz-adv-x="238" d="M78 -112Q109 -95 119 -66T130 -8Q122 -11 112 -11Q95 -11 84 2T73 36Q73 57 84 72T118 87Q141 87 154 66T168 5Q168 -31 159 -58T136 -104T106 -134T78 -148V-112Z"  />
<glyph unicode="&#x201C;" horiz-adv-x="430" d="M172 711Q141 694 131 665T120 607Q127 610 138 610Q155 610 166 597T177 563Q177 542 166 527T132 512Q109 512 96 533T82 594Q82 630 91 657T114 703T144 733T172 747V711ZM343 711Q312 694 302 665T291 607Q298 610 309 610Q326 610 337 597T348 563Q348 542 337 527T303 512Q280 512 267 533T253 594Q253 630 262 657T285 703T315 733T343 747V711Z"  />
<glyph unicode="&#x201D;" horiz-adv-x="430" d="M87 548Q118 565 128 594T139 652Q131 649 121 649Q104 649 93 662T82 696Q82 717 93 732T127 747Q150 747 163 726T177 665Q177 629 168 602T145 556T115 526T87 512V548ZM258 548Q289 565 299 594T310 652Q302 649 292 649Q275 649 264 662T253 696Q253 717 264 732T298 747Q321 747 334 726T348 665Q348 629 339 602T316 556T286 526T258 512V548Z"  />
<glyph unicode="&#x201E;" horiz-adv-x="430" d="M87 -112Q118 -95 128 -66T139 -8Q131 -11 121 -11Q104 -11 93 2T82 36Q82 57 93 72T127 87Q150 87 163 66T177 5Q177 -31 168 -58T145 -104T115 -134T87 -148V-112ZM258 -112Q289 -95 299 -66T310 -8Q302 -11 292 -11Q275 -11 264 2T253 36Q253 57 264 72T298 87Q321 87 334 66T348 5Q348 -31 339 -58T316 -104T286 -134T258 -148V-112Z"  />
<glyph unicode="&#x2020;" horiz-adv-x="526" d="M243 456H53V496H242V729H285V496H474V456H286V-168H243V456Z"  />
<glyph unicode="&#x2021;" horiz-adv-x="526" d="M243 43H53V83H243V478H53V518H242V729H285V518H474V478H286V83H474V43H286V-168H243V43Z"  />
<glyph unicode="&#x2022;" horiz-adv-x="404" d="M59 360Q59 390 70 416T100 461T146 492T202 503Q232 503 258 492T303 462T334 416T345 360Q345 330 334 304T304 259T258 228T202 217Q172 217 146 228T101 258T70 304T59 360Z"  />
<glyph unicode="&#x2026;" horiz-adv-x="972" d="M152 -14Q134 -14 123 0T111 36Q111 58 122 72T152 87Q170 87 181 73T193 36Q193 15 182 1T152 -14ZM486 -14Q468 -14 457 0T445 36Q445 58 456 72T486 87Q504 87 515 73T527 36Q527 15 516 1T486 -14ZM820 -14Q802 -14 791 0T779 36Q779 58 790 72T820 87Q838 87 849 73T861 36Q861 15 850 1T820 -14Z"  />
<glyph unicode="&#x2030;" horiz-adv-x="1010" d="M692 150Q692 181 704 208T736 255T783 286T842 298Q872 298 899 287T946 255T978 208T990 150Q990 119 979 92T947 45T900 12T842 0Q811 0 784 11T736 43T704 91T692 150ZM20 520Q20 551 32 578T64 625T111 656T170 668Q200 668 227 657T274 625T306 578T318 520Q318 489 307 462T275 415T228 382T170 370Q139 370 112 381T64 413T32 461T20 520ZM513 683H556L141 -16H98L513 683ZM337 150Q337 181 349 208T381 255T428 286T487 298Q517 298 544 287T591 255T623 208T635 150Q635 119 624 92T592 45T545 12T487 0Q456 0 429 11T381 43T349 91T337 150ZM842 33Q865 33 885 42T921 68T945 105T954 150Q954 173 945 194T921 230T886 255T842 265Q818 265 797 256T761 231T737 195T728 150Q728 126 737 105T761 68T797 43T842 33ZM170 403Q193 403 213 412T249 438T273 475T282 520Q282 543 273 564T249 600T214 625T170 635Q146 635 125 626T89 601T65 565T56 520Q56 496 65 475T89 438T125 413T170 403ZM487 33Q510 33 530 42T566 68T590 105T599 150Q599 173 590 194T566 230T531 255T487 265Q463 265 442 256T406 231T382 195T373 150Q373 126 382 105T406 68T442 43T487 33Z"  />
<glyph unicode="&#x2039;" horiz-adv-x="245" d="M31 253L165 478H214L79 253L214 28H165L31 253Z"  />
<glyph unicode="&#x203A;" horiz-adv-x="245" d="M166 253L31 478H80L214 253L80 28H31L166 253Z"  />
<glyph unicode="&#x2044;" horiz-adv-x="42" d="M208 683H252L-166 -16H-210L208 683Z"  />
<glyph unicode="&#x2074;" horiz-adv-x="357" d="M40 461L222 676H259V453H314Q317 445 317 438Q317 431 314 424H259V334H223V424H40V461ZM223 453V636L71 453H223Z"  />
<glyph unicode="&#x20AC;" horiz-adv-x="523" d="M37 287H90Q89 307 89 334T90 381H34L37 417H92Q96 478 115 527T165 611T233 664T316 683Q372 683 401 666T447 627V671Q450 672 455 672T464 672Q468 672 473 672T481 671V489Q476 488 464 488Q459 488 456 488T447 490V543Q447 585 413 614T317 644Q285 644 255 630T200 587T159 516T138 417H384L378 381H137Q136 372 136 359T135 333T135 308T136 287H360L354 251H138Q141 195 158 153T201 81T258 37T322 22Q373 22 413 41T482 90V43Q459 21 419 3T320 -16Q276 -16 237 1T167 52T116 135T92 251H34L37 287Z"  />
<glyph unicode="&#x2122;" horiz-adv-x="1005" d="M501 354V694H456Q456 702 456 705T455 711Q455 714 455 717T456 729H562L688 374L819 729H923Q923 721 923 718T924 711Q924 708 924 705T923 694H878V354H923Q923 346 923 343T924 336Q924 333 924 330T923 319H797Q792 328 792 336Q792 342 796 354H839V680L708 330H664L539 680V354H582Q584 347 584 344T585 336Q585 331 585 328T581 319H456Q456 327 456 330T455 336Q455 339 455 342T456 354H501ZM215 354V693H101V601Q93 601 89 601T81 600Q79 600 75 600T62 601V729H409V601Q401 601 397 601T390 600Q387 600 383 600T370 601V693H256V354H304Q304 346 304 342T305 336Q305 333 305 330T304 319H171Q166 328 166 336Q166 342 170 354H215Z"  />

</font>
</defs>
</svg>
